<svg width="59" height="47" viewBox="0 0 59 47" fill="none" xmlns="http://www.w3.org/2000/svg">
<path id="Vector" fill-rule="evenodd" clip-rule="evenodd" d="M33.63 37.0125C35.99 39.3625 35.99 42.8875 33.63 45.2375C32.45 46.4125 30.975 47 29.5 47C28.025 47 26.55 46.4125 25.37 45.2375C23.01 42.8875 23.01 39.3625 25.37 37.0125C27.73 34.6625 31.27 34.6625 33.63 37.0125ZM29.5 23.5C34.22 23.5 38.645 25.2625 41.89 28.7875C43.07 29.9625 43.07 31.725 41.89 32.9C41.3 33.4875 40.415 33.7812 39.825 33.7812C39.0664 33.7812 38.5246 33.5654 38.0137 33.1338L37.76 32.9C33.335 28.4937 25.96 28.4937 21.535 32.9C20.355 34.075 18.585 34.075 17.405 32.9C16.3158 31.8154 16.232 30.2302 17.1536 29.0685L17.405 28.7875C20.355 25.2625 24.78 23.5 29.5 23.5ZM29.5 11.75C37.17 11.75 44.545 14.6875 49.855 20.2687C51.035 21.4437 51.035 23.2063 49.855 24.3813C49.265 24.9688 48.675 25.2625 47.79 25.2625C47.0314 25.2625 46.4896 25.0467 45.9787 24.6151L45.725 24.3813C41.3 19.975 35.695 17.625 29.5 17.625C23.305 17.625 17.7 19.975 13.275 24.3813C12.095 25.5563 10.325 25.5563 9.145 24.3813C7.965 23.2063 7.965 21.4437 9.145 20.2687C14.455 14.6875 21.83 11.75 29.5 11.75ZM29.5 0C40.415 0 50.445 4.40625 58.115 12.0438C59.295 13.2188 59.295 14.9812 58.115 16.1562C57.525 16.7438 56.935 17.0375 56.05 17.0375C55.165 17.0375 54.575 16.7438 53.985 16.1562C47.495 9.4 38.645 5.875 29.5 5.875C20.355 5.875 11.505 9.4 5.015 16.1562C3.835 17.3313 2.065 17.3313 0.885 16.1562C-0.295 14.9812 -0.295 13.2188 0.885 12.0438C8.555 4.40625 18.585 0 29.5 0Z" fill="#FF5733"/>
</svg>
