<svg width="58" height="45" viewBox="0 0 58 45" fill="none" xmlns="http://www.w3.org/2000/svg">
<path id="Vector" d="M29.8314 23.0824C31.24 21.8598 32.3699 20.3476 33.1442 18.6486C33.9186 16.9495 34.3193 15.1033 34.3193 13.2353C34.3193 9.72508 32.9286 6.35863 30.4532 3.87653C27.9778 1.39443 24.6204 4.73588e-07 21.1196 4.73588e-07C17.6188 4.73588e-07 14.2614 1.39443 11.786 3.87653C9.31053 6.35863 7.91984 9.72508 7.91984 13.2353C7.91982 15.1033 8.32059 16.9495 9.09495 18.6486C9.86931 20.3476 10.9991 21.8598 12.4078 23.0824C8.7122 24.7603 5.5768 27.4699 3.37644 30.8873C1.17608 34.3047 0.00388562 38.2852 0 42.3529C0 43.055 0.278137 43.7283 0.773223 44.2247C1.26831 44.7211 1.93979 45 2.63995 45C3.34011 45 4.01159 44.7211 4.50667 44.2247C5.00176 43.7283 5.2799 43.055 5.2799 42.3529C5.2799 38.1407 6.94872 34.1009 9.91923 31.1224C12.8898 28.1439 16.9186 26.4706 21.1196 26.4706C25.3205 26.4706 29.3494 28.1439 32.3199 31.1224C35.2905 34.1009 36.9593 38.1407 36.9593 42.3529C36.9593 43.055 37.2374 43.7283 37.7325 44.2247C38.2276 44.7211 38.8991 45 39.5992 45C40.2994 45 40.9709 44.7211 41.4659 44.2247C41.961 43.7283 42.2392 43.055 42.2392 42.3529C42.2353 38.2852 41.0631 34.3047 38.8627 30.8873C36.6624 27.4699 33.527 24.7603 29.8314 23.0824ZM21.1196 21.1765C19.5532 21.1765 18.022 20.7107 16.7196 19.8381C15.4171 18.9656 14.402 17.7253 13.8026 16.2743C13.2032 14.8232 13.0463 13.2265 13.3519 11.686C13.6575 10.1456 14.4118 8.73063 15.5194 7.62004C16.627 6.50944 18.0382 5.75312 19.5745 5.44671C21.1108 5.14029 22.7032 5.29756 24.1504 5.8986C25.5975 6.49965 26.8345 7.51749 27.7047 8.82341C28.5749 10.1293 29.0394 11.6647 29.0394 13.2353C29.0394 15.3414 28.205 17.3613 26.7198 18.8506C25.2345 20.3398 23.2201 21.1765 21.1196 21.1765ZM46.8327 22.0235C48.5222 20.1159 49.6258 17.7593 50.0107 15.2374C50.3955 12.7155 50.0453 10.1358 49.0021 7.80882C47.9589 5.48186 46.2672 3.50681 44.1306 2.12141C41.994 0.736015 39.5037 -0.000681883 36.9593 4.73588e-07C36.2591 4.73588e-07 35.5876 0.278886 35.0926 0.775306C34.5975 1.27173 34.3193 1.94502 34.3193 2.64706C34.3193 3.3491 34.5975 4.02239 35.0926 4.51881C35.5876 5.01523 36.2591 5.29412 36.9593 5.29412C39.0597 5.29412 41.0742 6.13078 42.5595 7.62004C44.0447 9.10929 44.8791 11.1292 44.8791 13.2353C44.8754 14.6256 44.5077 15.9906 43.8127 17.1938C43.1178 18.3969 42.12 19.396 40.9192 20.0912C40.5278 20.3176 40.2009 20.6409 39.9698 21.0302C39.7387 21.4195 39.6111 21.8618 39.5992 22.3147C39.5882 22.7641 39.6914 23.2089 39.8993 23.6072C40.1071 24.0054 40.4127 24.3441 40.7872 24.5912L41.8168 25.2794L42.16 25.4647C45.3422 26.9781 48.0268 29.3717 49.8976 32.3638C51.7684 35.3558 52.7476 38.8216 52.7198 42.3529C52.7198 43.055 52.9979 43.7283 53.493 44.2247C53.9881 44.7211 54.6596 45 55.3597 45C56.0599 45 56.7314 44.7211 57.2264 44.2247C57.7215 43.7283 57.9997 43.055 57.9997 42.3529C58.0212 38.2908 57.0066 34.2907 55.0521 30.7325C53.0976 27.1744 50.2682 24.1764 46.8327 22.0235Z" fill="#FF5733"/>
</svg>
