<svg width="53" height="48" viewBox="0 0 53 48" fill="none" xmlns="http://www.w3.org/2000/svg">
<path id="Vector" d="M50.933 24C52.2521 22.5396 52.9883 20.6401 53 18.6667C53 16.5449 52.1624 14.5101 50.6715 13.0098C49.1806 11.5095 47.1585 10.6667 45.05 10.6667H31.323C31.7463 9.46181 31.8767 8.17243 31.7031 6.90647C31.5295 5.64052 31.057 4.43483 30.3253 3.39035C29.5935 2.34588 28.6238 1.49301 27.4972 0.903142C26.3706 0.313278 25.12 0.00358803 23.85 0H7.95C5.84153 0 3.81942 0.842855 2.3285 2.34315C0.837587 3.84344 0 5.87827 0 8C0.0116881 9.97348 0.747859 11.873 2.067 13.3333C0.763319 14.8001 0.0425802 16.6988 0.0425802 18.6667C0.0425802 20.6345 0.763319 22.5333 2.067 24C0.763319 25.4667 0.0425802 27.3655 0.0425802 29.3333C0.0425802 31.3012 0.763319 33.1999 2.067 34.6667C0.747859 36.127 0.0116881 38.0265 0 40C0 42.1217 0.837587 44.1566 2.3285 45.6569C3.81942 47.1571 5.84153 48 7.95 48H45.05C46.5811 47.9918 48.0772 47.5388 49.3586 46.6956C50.64 45.8523 51.6522 44.6547 52.2735 43.2465C52.8948 41.8384 53.0989 40.2796 52.861 38.7576C52.6232 37.2356 51.9537 35.815 50.933 34.6667C52.2367 33.1999 52.9574 31.3012 52.9574 29.3333C52.9574 27.3655 52.2367 25.4667 50.933 24ZM23.85 42.6667H7.95C7.24718 42.6667 6.57314 42.3857 6.07617 41.8856C5.5792 41.3855 5.3 40.7072 5.3 40C5.3 39.2928 5.5792 38.6145 6.07617 38.1144C6.57314 37.6143 7.24718 37.3333 7.95 37.3333H23.85C24.5528 37.3333 25.2269 37.6143 25.7238 38.1144C26.2208 38.6145 26.5 39.2928 26.5 40C26.5 40.7072 26.2208 41.3855 25.7238 41.8856C25.2269 42.3857 24.5528 42.6667 23.85 42.6667ZM23.85 32H7.95C7.24718 32 6.57314 31.719 6.07617 31.219C5.5792 30.7189 5.3 30.0406 5.3 29.3333C5.3 28.6261 5.5792 27.9478 6.07617 27.4477C6.57314 26.9476 7.24718 26.6667 7.95 26.6667H23.85C24.5528 26.6667 25.2269 26.9476 25.7238 27.4477C26.2208 27.9478 26.5 28.6261 26.5 29.3333C26.5 30.0406 26.2208 30.7189 25.7238 31.219C25.2269 31.719 24.5528 32 23.85 32ZM23.85 21.3333H7.95C7.24718 21.3333 6.57314 21.0524 6.07617 20.5523C5.5792 20.0522 5.3 19.3739 5.3 18.6667C5.3 17.9594 5.5792 17.2811 6.07617 16.781C6.57314 16.281 7.24718 16 7.95 16H23.85C24.5528 16 25.2269 16.281 25.7238 16.781C26.2208 17.2811 26.5 17.9594 26.5 18.6667C26.5 19.3739 26.2208 20.0522 25.7238 20.5523C25.2269 21.0524 24.5528 21.3333 23.85 21.3333ZM23.85 10.6667H7.95C7.24718 10.6667 6.57314 10.3857 6.07617 9.88562C5.5792 9.38552 5.3 8.70724 5.3 8C5.3 7.29276 5.5792 6.61448 6.07617 6.11438C6.57314 5.61429 7.24718 5.33333 7.95 5.33333H23.85C24.5528 5.33333 25.2269 5.61429 25.7238 6.11438C26.2208 6.61448 26.5 7.29276 26.5 8C26.5 8.70724 26.2208 9.38552 25.7238 9.88562C25.2269 10.3857 24.5528 10.6667 23.85 10.6667ZM46.8785 41.8933C46.6436 42.1427 46.3597 42.3401 46.045 42.4733C45.7302 42.6064 45.3914 42.6723 45.05 42.6667H31.323C31.9585 40.9464 31.9585 39.0536 31.323 37.3333H45.05C45.7528 37.3333 46.4269 37.6143 46.9238 38.1144C47.4208 38.6145 47.7 39.2928 47.7 40C47.6951 40.3547 47.6199 40.7049 47.4789 41.03C47.3378 41.3551 47.1337 41.6486 46.8785 41.8933ZM46.8785 31.2267C46.6436 31.476 46.3597 31.6735 46.045 31.8066C45.7302 31.9397 45.3914 32.0056 45.05 32H31.323C31.9585 30.2797 31.9585 28.3869 31.323 26.6667H45.05C45.7528 26.6667 46.4269 26.9476 46.9238 27.4477C47.4208 27.9478 47.7 28.6261 47.7 29.3333C47.6951 29.688 47.6199 30.0382 47.4789 30.3633C47.3378 30.6884 47.1337 30.9819 46.8785 31.2267ZM46.8785 20.56C46.6436 20.8093 46.3597 21.0068 46.045 21.1399C45.7302 21.2731 45.3914 21.3389 45.05 21.3333H31.323C31.9585 19.6131 31.9585 17.7203 31.323 16H45.05C45.7528 16 46.4269 16.281 46.9238 16.781C47.4208 17.2811 47.7 17.9594 47.7 18.6667C47.6951 19.0214 47.6199 19.3715 47.4789 19.6966C47.3378 20.0217 47.1337 20.3153 46.8785 20.56Z" fill="#FF5733"/>
</svg>
