<svg width="622" height="223" viewBox="0 0 622 223" fill="none" xmlns="http://www.w3.org/2000/svg">
<g filter="url(#filter0_dddd_2003_1886)">
<mask id="path-1-inside-1_2003_1886" fill="white">
<path d="M163 33H459V334H163V33Z"/>
</mask>
<path d="M163 33H459V334H163V33Z" fill="white"/>
<path d="M163 33H459V334H163V33Z" fill="url(#paint0_linear_2003_1886)" fill-opacity="0.16" style="mix-blend-mode:luminosity"/>
<path d="M163 33V31H161V33H163ZM459 33H461V31H459V33ZM459 334V336H461V334H459ZM163 334H161V336H163V334ZM163 33V35H459V33V31H163V33ZM459 33H457V334H459H461V33H459ZM459 334V332H163V334V336H459V334ZM163 334H165V33H163H161V334H163Z" fill="black" fill-opacity="0.16" mask="url(#path-1-inside-1_2003_1886)"/>
<path d="M191 61H333V93H191V61Z" fill="black" fill-opacity="0.2"/>
<path opacity="0.5" d="M191 113H431V306H191V113Z" fill="black" fill-opacity="0.2"/>
</g>
<g filter="url(#filter1_dddd_2003_1886)">
<mask id="path-5-inside-2_2003_1886" fill="white">
<path d="M48 137H279V209H48V137Z"/>
</mask>
<path d="M48 137H279V209H48V137Z" fill="white"/>
<path d="M48 137H279V209H48V137Z" fill="white"/>
<path d="M48 137H279V209H48V137Z" fill="url(#paint1_linear_2003_1886)" fill-opacity="0.32" style="mix-blend-mode:luminosity"/>
<path d="M48 137V135H46V137H48ZM279 137H281V135H279V137ZM279 209V211H281V209H279ZM48 209H46V211H48V209ZM48 137V139H279V137V135H48V137ZM279 137H277V209H279H281V137H279ZM279 209V207H48V209V211H279V209ZM48 209H50V137H48H46V209H48Z" fill="black" fill-opacity="0.16" mask="url(#path-5-inside-2_2003_1886)"/>
<path d="M126.016 178C125.845 178 125.712 177.952 125.616 177.856C125.52 177.76 125.472 177.621 125.472 177.44V167.28C125.472 167.099 125.52 166.96 125.616 166.864C125.712 166.768 125.845 166.72 126.016 166.72H129.104C130.896 166.72 132.277 167.2 133.248 168.16C134.229 169.12 134.72 170.517 134.72 172.352C134.72 173.269 134.592 174.08 134.336 174.784C134.091 175.488 133.728 176.08 133.248 176.56C132.768 177.029 132.181 177.387 131.488 177.632C130.795 177.877 130 178 129.104 178H126.016ZM126.448 177.136H129.024C129.803 177.136 130.48 177.035 131.056 176.832C131.643 176.629 132.128 176.331 132.512 175.936C132.896 175.541 133.184 175.045 133.376 174.448C133.568 173.84 133.664 173.141 133.664 172.352C133.664 170.763 133.275 169.573 132.496 168.784C131.728 167.984 130.571 167.584 129.024 167.584H126.448V177.136ZM140.39 178.128C139.59 178.128 138.902 177.968 138.326 177.648C137.75 177.328 137.308 176.869 136.998 176.272C136.689 175.675 136.534 174.965 136.534 174.144C136.534 173.333 136.689 172.629 136.998 172.032C137.308 171.424 137.734 170.949 138.278 170.608C138.833 170.267 139.468 170.096 140.182 170.096C140.705 170.096 141.164 170.187 141.558 170.368C141.964 170.539 142.305 170.789 142.582 171.12C142.87 171.44 143.089 171.835 143.238 172.304C143.388 172.763 143.462 173.285 143.462 173.872C143.462 174.021 143.42 174.133 143.334 174.208C143.26 174.283 143.153 174.32 143.014 174.32H137.238V173.6H142.854L142.598 173.808C142.598 173.189 142.508 172.667 142.326 172.24C142.145 171.803 141.873 171.467 141.51 171.232C141.158 170.997 140.721 170.88 140.198 170.88C139.612 170.88 139.116 171.019 138.71 171.296C138.305 171.563 138.001 171.936 137.798 172.416C137.596 172.885 137.494 173.429 137.494 174.048V174.128C137.494 175.152 137.745 175.941 138.246 176.496C138.748 177.04 139.452 177.312 140.358 177.312C140.753 177.312 141.132 177.259 141.494 177.152C141.868 177.045 142.23 176.864 142.582 176.608C142.689 176.533 142.79 176.496 142.886 176.496C142.993 176.496 143.078 176.523 143.142 176.576C143.217 176.629 143.265 176.699 143.286 176.784C143.318 176.859 143.313 176.944 143.27 177.04C143.238 177.125 143.169 177.205 143.062 177.28C142.721 177.557 142.31 177.771 141.83 177.92C141.35 178.059 140.87 178.128 140.39 178.128ZM147.692 178.128C146.977 178.128 146.423 177.904 146.028 177.456C145.644 177.008 145.452 176.373 145.452 175.552V167.12C145.452 166.949 145.495 166.827 145.58 166.752C145.665 166.667 145.788 166.624 145.948 166.624C146.097 166.624 146.215 166.667 146.3 166.752C146.385 166.827 146.428 166.949 146.428 167.12V175.44C146.428 176.059 146.551 176.523 146.796 176.832C147.041 177.131 147.399 177.28 147.868 177.28C147.975 177.28 148.065 177.275 148.14 177.264C148.215 177.253 148.289 177.248 148.364 177.248C148.46 177.237 148.529 177.259 148.572 177.312C148.625 177.355 148.652 177.451 148.652 177.6C148.652 177.749 148.615 177.861 148.54 177.936C148.465 178.011 148.343 178.064 148.172 178.096C148.097 178.107 148.017 178.112 147.932 178.112C147.857 178.123 147.777 178.128 147.692 178.128ZM153.312 178.128C152.512 178.128 151.824 177.968 151.248 177.648C150.672 177.328 150.23 176.869 149.92 176.272C149.611 175.675 149.456 174.965 149.456 174.144C149.456 173.333 149.611 172.629 149.92 172.032C150.23 171.424 150.656 170.949 151.2 170.608C151.755 170.267 152.39 170.096 153.104 170.096C153.627 170.096 154.086 170.187 154.48 170.368C154.886 170.539 155.227 170.789 155.504 171.12C155.792 171.44 156.011 171.835 156.16 172.304C156.31 172.763 156.384 173.285 156.384 173.872C156.384 174.021 156.342 174.133 156.256 174.208C156.182 174.283 156.075 174.32 155.936 174.32H150.16V173.6H155.776L155.52 173.808C155.52 173.189 155.43 172.667 155.248 172.24C155.067 171.803 154.795 171.467 154.432 171.232C154.08 170.997 153.643 170.88 153.12 170.88C152.534 170.88 152.038 171.019 151.632 171.296C151.227 171.563 150.923 171.936 150.72 172.416C150.518 172.885 150.416 173.429 150.416 174.048V174.128C150.416 175.152 150.667 175.941 151.168 176.496C151.67 177.04 152.374 177.312 153.28 177.312C153.675 177.312 154.054 177.259 154.416 177.152C154.79 177.045 155.152 176.864 155.504 176.608C155.611 176.533 155.712 176.496 155.808 176.496C155.915 176.496 156 176.523 156.064 176.576C156.139 176.629 156.187 176.699 156.208 176.784C156.24 176.859 156.235 176.944 156.192 177.04C156.16 177.125 156.091 177.205 155.984 177.28C155.643 177.557 155.232 177.771 154.752 177.92C154.272 178.059 153.792 178.128 153.312 178.128ZM161.302 178.128C160.726 178.128 160.246 178.021 159.862 177.808C159.478 177.595 159.19 177.291 158.998 176.896C158.806 176.491 158.71 175.995 158.71 175.408V171.024H157.526C157.387 171.024 157.275 170.992 157.19 170.928C157.104 170.853 157.062 170.752 157.062 170.624C157.062 170.507 157.104 170.416 157.19 170.352C157.275 170.277 157.387 170.24 157.526 170.24H158.71V168.24C158.71 168.069 158.752 167.947 158.838 167.872C158.923 167.787 159.046 167.744 159.206 167.744C159.355 167.744 159.472 167.787 159.558 167.872C159.643 167.947 159.686 168.069 159.686 168.24V170.24H161.846C161.995 170.24 162.107 170.277 162.182 170.352C162.256 170.416 162.294 170.507 162.294 170.624C162.294 170.752 162.256 170.853 162.182 170.928C162.107 170.992 161.995 171.024 161.846 171.024H159.686V175.28C159.686 175.931 159.819 176.427 160.086 176.768C160.352 177.109 160.795 177.28 161.414 177.28C161.627 177.28 161.803 177.259 161.942 177.216C162.091 177.163 162.214 177.136 162.31 177.136C162.384 177.136 162.448 177.168 162.502 177.232C162.566 177.296 162.598 177.397 162.598 177.536C162.598 177.621 162.576 177.707 162.534 177.792C162.502 177.877 162.438 177.931 162.342 177.952C162.224 177.995 162.064 178.032 161.862 178.064C161.659 178.107 161.472 178.128 161.302 178.128ZM167.031 178.128C166.231 178.128 165.543 177.968 164.967 177.648C164.391 177.328 163.948 176.869 163.639 176.272C163.33 175.675 163.175 174.965 163.175 174.144C163.175 173.333 163.33 172.629 163.639 172.032C163.948 171.424 164.375 170.949 164.919 170.608C165.474 170.267 166.108 170.096 166.823 170.096C167.346 170.096 167.804 170.187 168.199 170.368C168.604 170.539 168.946 170.789 169.223 171.12C169.511 171.44 169.73 171.835 169.879 172.304C170.028 172.763 170.103 173.285 170.103 173.872C170.103 174.021 170.06 174.133 169.975 174.208C169.9 174.283 169.794 174.32 169.655 174.32H163.879V173.6H169.495L169.239 173.808C169.239 173.189 169.148 172.667 168.967 172.24C168.786 171.803 168.514 171.467 168.151 171.232C167.799 170.997 167.362 170.88 166.839 170.88C166.252 170.88 165.756 171.019 165.351 171.296C164.946 171.563 164.642 171.936 164.439 172.416C164.236 172.885 164.135 173.429 164.135 174.048V174.128C164.135 175.152 164.386 175.941 164.887 176.496C165.388 177.04 166.092 177.312 166.999 177.312C167.394 177.312 167.772 177.259 168.135 177.152C168.508 177.045 168.871 176.864 169.223 176.608C169.33 176.533 169.431 176.496 169.527 176.496C169.634 176.496 169.719 176.523 169.783 176.576C169.858 176.629 169.906 176.699 169.927 176.784C169.959 176.859 169.954 176.944 169.911 177.04C169.879 177.125 169.81 177.205 169.703 177.28C169.362 177.557 168.951 177.771 168.471 177.92C167.991 178.059 167.511 178.128 167.031 178.128ZM179.82 178.128C179.094 178.128 178.476 177.941 177.964 177.568C177.452 177.195 177.105 176.693 176.924 176.064L177.1 175.968V177.6C177.1 177.76 177.057 177.883 176.972 177.968C176.886 178.053 176.769 178.096 176.62 178.096C176.46 178.096 176.337 178.053 176.252 177.968C176.166 177.883 176.124 177.76 176.124 177.6V167.12C176.124 166.949 176.166 166.827 176.252 166.752C176.337 166.667 176.46 166.624 176.62 166.624C176.769 166.624 176.886 166.667 176.972 166.752C177.057 166.827 177.1 166.949 177.1 167.12V172.16H176.924C177.105 171.531 177.452 171.029 177.964 170.656C178.476 170.283 179.094 170.096 179.82 170.096C180.524 170.096 181.132 170.261 181.644 170.592C182.156 170.923 182.55 171.387 182.828 171.984C183.116 172.581 183.26 173.291 183.26 174.112C183.26 174.933 183.116 175.648 182.828 176.256C182.55 176.853 182.15 177.317 181.628 177.648C181.116 177.968 180.513 178.128 179.82 178.128ZM179.676 177.312C180.198 177.312 180.652 177.189 181.036 176.944C181.43 176.688 181.734 176.32 181.948 175.84C182.161 175.36 182.268 174.784 182.268 174.112C182.268 173.099 182.033 172.315 181.564 171.76C181.094 171.205 180.465 170.928 179.676 170.928C179.153 170.928 178.694 171.056 178.3 171.312C177.916 171.557 177.617 171.92 177.404 172.4C177.19 172.869 177.084 173.44 177.084 174.112C177.084 175.136 177.318 175.925 177.788 176.48C178.257 177.035 178.886 177.312 179.676 177.312ZM187.567 178.128C186.852 178.128 186.298 177.904 185.903 177.456C185.519 177.008 185.327 176.373 185.327 175.552V167.12C185.327 166.949 185.37 166.827 185.455 166.752C185.54 166.667 185.663 166.624 185.823 166.624C185.972 166.624 186.09 166.667 186.175 166.752C186.26 166.827 186.303 166.949 186.303 167.12V175.44C186.303 176.059 186.426 176.523 186.671 176.832C186.916 177.131 187.274 177.28 187.743 177.28C187.85 177.28 187.94 177.275 188.015 177.264C188.09 177.253 188.164 177.248 188.239 177.248C188.335 177.237 188.404 177.259 188.447 177.312C188.5 177.355 188.527 177.451 188.527 177.6C188.527 177.749 188.49 177.861 188.415 177.936C188.34 178.011 188.218 178.064 188.047 178.096C187.972 178.107 187.892 178.112 187.807 178.112C187.732 178.123 187.652 178.128 187.567 178.128ZM192.899 178.128C192.174 178.128 191.545 177.963 191.011 177.632C190.478 177.301 190.062 176.837 189.763 176.24C189.475 175.643 189.331 174.933 189.331 174.112C189.331 173.504 189.411 172.955 189.571 172.464C189.742 171.973 189.982 171.552 190.291 171.2C190.611 170.837 190.99 170.565 191.427 170.384C191.875 170.192 192.366 170.096 192.899 170.096C193.635 170.096 194.27 170.261 194.803 170.592C195.337 170.923 195.747 171.392 196.035 172C196.334 172.597 196.483 173.301 196.483 174.112C196.483 174.731 196.398 175.285 196.227 175.776C196.067 176.267 195.827 176.688 195.507 177.04C195.198 177.392 194.825 177.664 194.387 177.856C193.95 178.037 193.454 178.128 192.899 178.128ZM192.899 177.312C193.433 177.312 193.891 177.189 194.275 176.944C194.67 176.688 194.969 176.32 195.171 175.84C195.385 175.36 195.491 174.784 195.491 174.112C195.491 173.099 195.257 172.315 194.787 171.76C194.329 171.205 193.699 170.928 192.899 170.928C192.377 170.928 191.918 171.056 191.523 171.312C191.139 171.557 190.841 171.92 190.627 172.4C190.425 172.869 190.323 173.44 190.323 174.112C190.323 175.136 190.558 175.925 191.027 176.48C191.497 177.035 192.121 177.312 192.899 177.312ZM201.729 178.128C200.972 178.128 200.321 177.963 199.777 177.632C199.233 177.291 198.812 176.816 198.513 176.208C198.225 175.589 198.081 174.875 198.081 174.064C198.081 173.445 198.161 172.896 198.321 172.416C198.492 171.925 198.732 171.509 199.041 171.168C199.361 170.827 199.745 170.565 200.193 170.384C200.652 170.192 201.164 170.096 201.729 170.096C202.124 170.096 202.529 170.165 202.945 170.304C203.361 170.432 203.74 170.651 204.081 170.96C204.156 171.024 204.204 171.099 204.225 171.184C204.247 171.269 204.241 171.355 204.209 171.44C204.177 171.515 204.129 171.579 204.065 171.632C204.001 171.675 203.921 171.701 203.825 171.712C203.74 171.712 203.649 171.669 203.553 171.584C203.255 171.339 202.951 171.173 202.641 171.088C202.343 170.992 202.049 170.944 201.761 170.944C201.324 170.944 200.94 171.013 200.609 171.152C200.279 171.291 199.996 171.493 199.761 171.76C199.537 172.027 199.367 172.357 199.249 172.752C199.132 173.136 199.073 173.579 199.073 174.08C199.073 175.083 199.303 175.872 199.761 176.448C200.231 177.013 200.897 177.296 201.761 177.296C202.049 177.296 202.343 177.253 202.641 177.168C202.951 177.072 203.255 176.901 203.553 176.656C203.649 176.571 203.74 176.533 203.825 176.544C203.921 176.544 204.001 176.571 204.065 176.624C204.129 176.667 204.172 176.731 204.193 176.816C204.225 176.891 204.231 176.971 204.209 177.056C204.188 177.141 204.14 177.216 204.065 177.28C203.735 177.589 203.361 177.808 202.945 177.936C202.529 178.064 202.124 178.128 201.729 178.128ZM206.401 178.096C206.241 178.096 206.118 178.053 206.033 177.968C205.948 177.883 205.905 177.76 205.905 177.6V167.12C205.905 166.949 205.948 166.827 206.033 166.752C206.118 166.667 206.241 166.624 206.401 166.624C206.55 166.624 206.668 166.667 206.753 166.752C206.838 166.827 206.881 166.949 206.881 167.12V173.76H206.913L210.497 170.48C210.614 170.373 210.716 170.288 210.801 170.224C210.897 170.16 211.02 170.128 211.169 170.128C211.297 170.128 211.398 170.165 211.473 170.24C211.548 170.315 211.58 170.405 211.569 170.512C211.569 170.608 211.516 170.715 211.409 170.832L207.601 174.304V173.68L211.745 177.36C211.873 177.477 211.937 177.595 211.937 177.712C211.948 177.819 211.916 177.909 211.841 177.984C211.766 178.059 211.665 178.096 211.537 178.096C211.398 178.096 211.281 178.064 211.185 178C211.089 177.947 210.972 177.856 210.833 177.728L206.913 174.272H206.881V177.6C206.881 177.931 206.721 178.096 206.401 178.096ZM218.294 178.096C218.156 178.096 218.054 178.048 217.99 177.952C217.937 177.856 217.926 177.723 217.958 177.552L218.47 174.912L218.854 175.008H217.382C217.286 175.008 217.196 174.992 217.11 174.96C217.036 174.928 216.977 174.885 216.934 174.832C216.902 174.768 216.886 174.699 216.886 174.624C216.886 174.485 216.929 174.384 217.014 174.32C217.1 174.256 217.222 174.224 217.382 174.224H218.982L218.582 174.336L219.382 170.224L219.702 170.368H217.702C217.596 170.368 217.5 170.352 217.414 170.32C217.34 170.288 217.281 170.245 217.238 170.192C217.206 170.128 217.19 170.053 217.19 169.968C217.19 169.84 217.233 169.744 217.318 169.68C217.414 169.616 217.542 169.584 217.702 169.584H219.846L219.462 169.68L219.974 167.072C220.006 166.912 220.065 166.8 220.15 166.736C220.246 166.661 220.358 166.624 220.486 166.624C220.614 166.624 220.705 166.672 220.758 166.768C220.812 166.853 220.822 166.987 220.79 167.168L220.342 169.584H223.126L223.59 167.072C223.622 166.912 223.681 166.8 223.766 166.736C223.862 166.661 223.98 166.624 224.118 166.624C224.246 166.624 224.337 166.672 224.39 166.768C224.444 166.853 224.454 166.987 224.422 167.168L223.942 169.68L223.622 169.584H225.03C225.137 169.584 225.228 169.6 225.302 169.632C225.377 169.664 225.43 169.707 225.462 169.76C225.505 169.813 225.526 169.883 225.526 169.968C225.526 170.096 225.484 170.197 225.398 170.272C225.313 170.336 225.19 170.368 225.03 170.368H223.462L223.846 170.224L223.046 174.352L222.71 174.224H224.71C224.828 174.224 224.924 174.24 224.998 174.272C225.073 174.304 225.126 174.347 225.158 174.4C225.201 174.453 225.222 174.528 225.222 174.624C225.222 174.752 225.18 174.848 225.094 174.912C225.009 174.976 224.881 175.008 224.71 175.008H222.566L222.95 174.912L222.406 177.648C222.374 177.808 222.316 177.925 222.23 178C222.145 178.064 222.033 178.096 221.894 178.096C221.766 178.096 221.67 178.053 221.606 177.968C221.553 177.872 221.542 177.733 221.574 177.552L222.054 175.008H219.286L218.79 177.648C218.758 177.808 218.7 177.925 218.614 178C218.54 178.064 218.433 178.096 218.294 178.096ZM219.43 174.224H222.214L222.966 170.368H220.182L219.43 174.224ZM228.032 178C227.84 178 227.696 177.957 227.6 177.872C227.515 177.776 227.472 177.653 227.472 177.504C227.472 177.419 227.493 177.333 227.536 177.248C227.579 177.163 227.637 177.083 227.712 177.008L231.456 172.96C232.032 172.341 232.448 171.771 232.704 171.248C232.96 170.715 233.088 170.171 233.088 169.616C233.088 168.923 232.88 168.395 232.464 168.032C232.048 167.669 231.44 167.488 230.64 167.488C230.107 167.488 229.611 167.579 229.152 167.76C228.704 167.931 228.272 168.187 227.856 168.528C227.749 168.613 227.648 168.656 227.552 168.656C227.467 168.656 227.392 168.629 227.328 168.576C227.264 168.512 227.216 168.437 227.184 168.352C227.163 168.256 227.163 168.16 227.184 168.064C227.216 167.968 227.275 167.883 227.36 167.808C227.776 167.445 228.277 167.152 228.864 166.928C229.451 166.704 230.059 166.592 230.688 166.592C231.413 166.592 232.027 166.709 232.528 166.944C233.04 167.168 233.429 167.504 233.696 167.952C233.963 168.4 234.096 168.939 234.096 169.568C234.096 170.016 234.021 170.459 233.872 170.896C233.723 171.333 233.499 171.776 233.2 172.224C232.912 172.672 232.539 173.141 232.08 173.632L228.48 177.44V177.136H234.192C234.341 177.136 234.453 177.173 234.528 177.248C234.613 177.312 234.656 177.413 234.656 177.552C234.656 177.701 234.613 177.813 234.528 177.888C234.453 177.963 234.341 178 234.192 178H228.032Z" fill="black"/>
<path d="M84 186.333C91.3638 186.333 97.3333 180.364 97.3333 173C97.3333 165.636 91.3638 159.667 84 159.667C76.6362 159.667 70.6667 165.636 70.6667 173C70.6667 180.364 76.6362 186.333 84 186.333Z" stroke="#AD7C00" stroke-width="2" stroke-linecap="round" stroke-linejoin="round" stroke-dasharray="4 4"/>
</g>
<g filter="url(#filter2_dddd_2003_1886)">
<mask id="path-9-inside-3_2003_1886" fill="white">
<path d="M344 71H575V143H344V71Z"/>
</mask>
<path d="M344 71H575V143H344V71Z" fill="white"/>
<path d="M344 71H575V143H344V71Z" fill="white"/>
<path d="M344 71H575V143H344V71Z" fill="url(#paint2_linear_2003_1886)" fill-opacity="0.32" style="mix-blend-mode:luminosity"/>
<path d="M344 71V69H342V71H344ZM575 71H577V69H575V71ZM575 143V145H577V143H575ZM344 143H342V145H344V143ZM344 71V73H575V71V69H344V71ZM575 71H573V143H575H577V71H575ZM575 143V141H344V143V145H575V143ZM344 143H346V71H344H342V143H344Z" fill="black" fill-opacity="0.16" mask="url(#path-9-inside-3_2003_1886)"/>
<path d="M416.016 113C415.845 113 415.712 112.952 415.616 112.856C415.52 112.76 415.472 112.621 415.472 112.44V102.28C415.472 102.099 415.52 101.96 415.616 101.864C415.712 101.768 415.845 101.72 416.016 101.72H419.104C420.896 101.72 422.277 102.2 423.248 103.16C424.229 104.12 424.72 105.517 424.72 107.352C424.72 108.269 424.592 109.08 424.336 109.784C424.091 110.488 423.728 111.08 423.248 111.56C422.768 112.029 422.181 112.387 421.488 112.632C420.795 112.877 420 113 419.104 113H416.016ZM416.448 112.136H419.024C419.803 112.136 420.48 112.035 421.056 111.832C421.643 111.629 422.128 111.331 422.512 110.936C422.896 110.541 423.184 110.045 423.376 109.448C423.568 108.84 423.664 108.141 423.664 107.352C423.664 105.763 423.275 104.573 422.496 103.784C421.728 102.984 420.571 102.584 419.024 102.584H416.448V112.136ZM430.102 113.128C429.377 113.128 428.748 112.963 428.214 112.632C427.681 112.301 427.265 111.837 426.966 111.24C426.678 110.643 426.534 109.933 426.534 109.112C426.534 108.504 426.614 107.955 426.774 107.464C426.945 106.973 427.185 106.552 427.494 106.2C427.814 105.837 428.193 105.565 428.63 105.384C429.078 105.192 429.569 105.096 430.102 105.096C430.838 105.096 431.473 105.261 432.006 105.592C432.54 105.923 432.95 106.392 433.238 107C433.537 107.597 433.686 108.301 433.686 109.112C433.686 109.731 433.601 110.285 433.43 110.776C433.27 111.267 433.03 111.688 432.71 112.04C432.401 112.392 432.028 112.664 431.59 112.856C431.153 113.037 430.657 113.128 430.102 113.128ZM430.102 112.312C430.636 112.312 431.094 112.189 431.478 111.944C431.873 111.688 432.172 111.32 432.374 110.84C432.588 110.36 432.694 109.784 432.694 109.112C432.694 108.099 432.46 107.315 431.99 106.76C431.532 106.205 430.902 105.928 430.102 105.928C429.58 105.928 429.121 106.056 428.726 106.312C428.342 106.557 428.044 106.92 427.83 107.4C427.628 107.869 427.526 108.44 427.526 109.112C427.526 110.136 427.761 110.925 428.23 111.48C428.7 112.035 429.324 112.312 430.102 112.312ZM438.215 113.096C438.076 113.096 437.948 113.059 437.831 112.984C437.724 112.899 437.633 112.771 437.559 112.6L435.143 105.864C435.089 105.715 435.073 105.587 435.095 105.48C435.127 105.373 435.18 105.288 435.255 105.224C435.34 105.16 435.441 105.128 435.559 105.128C435.687 105.128 435.788 105.16 435.863 105.224C435.937 105.277 436.001 105.384 436.055 105.544L438.423 112.424H438.023L440.487 105.592C440.54 105.432 440.62 105.315 440.727 105.24C440.833 105.165 440.956 105.128 441.095 105.128C441.244 105.128 441.372 105.165 441.479 105.24C441.585 105.315 441.665 105.432 441.719 105.592L444.119 112.424H443.719L446.151 105.528C446.204 105.368 446.268 105.261 446.343 105.208C446.417 105.155 446.519 105.128 446.647 105.128C446.796 105.128 446.903 105.165 446.967 105.24C447.031 105.315 447.063 105.405 447.063 105.512C447.073 105.619 447.057 105.736 447.015 105.864L444.583 112.6C444.519 112.771 444.428 112.899 444.311 112.984C444.204 113.059 444.076 113.096 443.927 113.096C443.788 113.096 443.66 113.059 443.543 112.984C443.425 112.899 443.335 112.771 443.271 112.6L440.791 105.688H441.383L438.887 112.6C438.823 112.771 438.732 112.899 438.615 112.984C438.508 113.059 438.375 113.096 438.215 113.096ZM449.526 113.096C449.366 113.096 449.243 113.053 449.158 112.968C449.073 112.883 449.03 112.76 449.03 112.6V105.64C449.03 105.469 449.073 105.341 449.158 105.256C449.243 105.171 449.366 105.128 449.526 105.128C449.675 105.128 449.787 105.171 449.862 105.256C449.947 105.341 449.99 105.469 449.99 105.64V107.144L449.814 107.048C450.027 106.408 450.39 105.923 450.902 105.592C451.425 105.261 452.022 105.096 452.694 105.096C453.313 105.096 453.825 105.208 454.23 105.432C454.646 105.645 454.955 105.976 455.158 106.424C455.361 106.872 455.462 107.432 455.462 108.104V112.6C455.462 112.76 455.419 112.883 455.334 112.968C455.249 113.053 455.131 113.096 454.982 113.096C454.822 113.096 454.699 113.053 454.614 112.968C454.529 112.883 454.486 112.76 454.486 112.6V108.184C454.486 107.405 454.331 106.84 454.022 106.488C453.713 106.125 453.222 105.944 452.55 105.944C451.782 105.944 451.163 106.184 450.694 106.664C450.235 107.133 450.006 107.768 450.006 108.568V112.6C450.006 112.931 449.846 113.096 449.526 113.096ZM460.223 113.128C459.508 113.128 458.954 112.904 458.559 112.456C458.175 112.008 457.983 111.373 457.983 110.552V102.12C457.983 101.949 458.026 101.827 458.111 101.752C458.196 101.667 458.319 101.624 458.479 101.624C458.628 101.624 458.746 101.667 458.831 101.752C458.916 101.827 458.959 101.949 458.959 102.12V110.44C458.959 111.059 459.082 111.523 459.327 111.832C459.572 112.131 459.93 112.28 460.399 112.28C460.506 112.28 460.596 112.275 460.671 112.264C460.746 112.253 460.82 112.248 460.895 112.248C460.991 112.237 461.06 112.259 461.103 112.312C461.156 112.355 461.183 112.451 461.183 112.6C461.183 112.749 461.146 112.861 461.071 112.936C460.996 113.011 460.874 113.064 460.703 113.096C460.628 113.107 460.548 113.112 460.463 113.112C460.388 113.123 460.308 113.128 460.223 113.128ZM465.556 113.128C464.83 113.128 464.201 112.963 463.668 112.632C463.134 112.301 462.718 111.837 462.42 111.24C462.132 110.643 461.988 109.933 461.988 109.112C461.988 108.504 462.068 107.955 462.228 107.464C462.398 106.973 462.638 106.552 462.948 106.2C463.268 105.837 463.646 105.565 464.084 105.384C464.532 105.192 465.022 105.096 465.556 105.096C466.292 105.096 466.926 105.261 467.46 105.592C467.993 105.923 468.404 106.392 468.692 107C468.99 107.597 469.14 108.301 469.14 109.112C469.14 109.731 469.054 110.285 468.884 110.776C468.724 111.267 468.484 111.688 468.164 112.04C467.854 112.392 467.481 112.664 467.044 112.856C466.606 113.037 466.11 113.128 465.556 113.128ZM465.556 112.312C466.089 112.312 466.548 112.189 466.932 111.944C467.326 111.688 467.625 111.32 467.828 110.84C468.041 110.36 468.148 109.784 468.148 109.112C468.148 108.099 467.913 107.315 467.444 106.76C466.985 106.205 466.356 105.928 465.556 105.928C465.033 105.928 464.574 106.056 464.18 106.312C463.796 106.557 463.497 106.92 463.284 107.4C463.081 107.869 462.98 108.44 462.98 109.112C462.98 110.136 463.214 110.925 463.684 111.48C464.153 112.035 464.777 112.312 465.556 112.312ZM473.618 113.128C473.095 113.128 472.626 113.027 472.21 112.824C471.804 112.621 471.479 112.344 471.234 111.992C470.999 111.64 470.882 111.245 470.882 110.808C470.882 110.232 471.026 109.779 471.314 109.448C471.602 109.117 472.087 108.888 472.77 108.76C473.452 108.621 474.391 108.552 475.586 108.552H476.274V109.272H475.602C474.641 109.272 473.89 109.315 473.346 109.4C472.812 109.475 472.439 109.619 472.226 109.832C472.012 110.045 471.906 110.344 471.906 110.728C471.906 111.208 472.071 111.597 472.402 111.896C472.732 112.195 473.18 112.344 473.746 112.344C474.204 112.344 474.604 112.237 474.946 112.024C475.298 111.8 475.575 111.496 475.778 111.112C475.98 110.728 476.082 110.291 476.082 109.8V107.976C476.082 107.261 475.938 106.744 475.65 106.424C475.362 106.093 474.903 105.928 474.274 105.928C473.868 105.928 473.474 105.981 473.09 106.088C472.716 106.195 472.316 106.365 471.89 106.6C471.772 106.664 471.666 106.685 471.57 106.664C471.484 106.643 471.415 106.6 471.362 106.536C471.319 106.472 471.287 106.397 471.266 106.312C471.255 106.216 471.271 106.125 471.314 106.04C471.356 105.955 471.431 105.885 471.538 105.832C471.986 105.587 472.439 105.405 472.898 105.288C473.367 105.16 473.82 105.096 474.258 105.096C474.887 105.096 475.404 105.203 475.81 105.416C476.226 105.629 476.53 105.949 476.722 106.376C476.924 106.803 477.026 107.352 477.026 108.024V112.6C477.026 112.76 476.988 112.883 476.914 112.968C476.839 113.053 476.727 113.096 476.578 113.096C476.428 113.096 476.311 113.053 476.226 112.968C476.14 112.883 476.098 112.76 476.098 112.6V111.128H476.258C476.162 111.544 475.991 111.901 475.746 112.2C475.5 112.499 475.196 112.728 474.834 112.888C474.471 113.048 474.066 113.128 473.618 113.128ZM482.537 113.128C481.844 113.128 481.236 112.968 480.713 112.648C480.201 112.317 479.801 111.853 479.513 111.256C479.236 110.648 479.097 109.933 479.097 109.112C479.097 108.291 479.236 107.581 479.513 106.984C479.79 106.387 480.185 105.923 480.697 105.592C481.22 105.261 481.833 105.096 482.537 105.096C483.262 105.096 483.881 105.283 484.393 105.656C484.905 106.029 485.246 106.531 485.417 107.16H485.241V102.12C485.241 101.949 485.284 101.827 485.369 101.752C485.454 101.667 485.572 101.624 485.721 101.624C485.881 101.624 486.004 101.667 486.089 101.752C486.174 101.827 486.217 101.949 486.217 102.12V112.6C486.217 112.76 486.174 112.883 486.089 112.968C486.004 113.053 485.886 113.096 485.737 113.096C485.577 113.096 485.454 113.053 485.369 112.968C485.284 112.883 485.241 112.76 485.241 112.6V110.952L485.417 111.064C485.246 111.693 484.905 112.195 484.393 112.568C483.881 112.941 483.262 113.128 482.537 113.128ZM482.665 112.312C483.198 112.312 483.657 112.189 484.041 111.944C484.436 111.688 484.734 111.32 484.937 110.84C485.15 110.36 485.257 109.784 485.257 109.112C485.257 108.099 485.022 107.315 484.553 106.76C484.094 106.205 483.465 105.928 482.665 105.928C482.142 105.928 481.684 106.056 481.289 106.312C480.905 106.557 480.606 106.92 480.393 107.4C480.19 107.869 480.089 108.44 480.089 109.112C480.089 110.136 480.324 110.925 480.793 111.48C481.262 112.035 481.886 112.312 482.665 112.312ZM496.507 113.128C495.782 113.128 495.163 112.941 494.651 112.568C494.139 112.195 493.793 111.693 493.611 111.064L493.787 110.968V112.6C493.787 112.76 493.745 112.883 493.659 112.968C493.574 113.053 493.457 113.096 493.307 113.096C493.147 113.096 493.025 113.053 492.939 112.968C492.854 112.883 492.811 112.76 492.811 112.6V102.12C492.811 101.949 492.854 101.827 492.939 101.752C493.025 101.667 493.147 101.624 493.307 101.624C493.457 101.624 493.574 101.667 493.659 101.752C493.745 101.827 493.787 101.949 493.787 102.12V107.16H493.611C493.793 106.531 494.139 106.029 494.651 105.656C495.163 105.283 495.782 105.096 496.507 105.096C497.211 105.096 497.819 105.261 498.331 105.592C498.843 105.923 499.238 106.387 499.515 106.984C499.803 107.581 499.947 108.291 499.947 109.112C499.947 109.933 499.803 110.648 499.515 111.256C499.238 111.853 498.838 112.317 498.315 112.648C497.803 112.968 497.201 113.128 496.507 113.128ZM496.363 112.312C496.886 112.312 497.339 112.189 497.723 111.944C498.118 111.688 498.422 111.32 498.635 110.84C498.849 110.36 498.955 109.784 498.955 109.112C498.955 108.099 498.721 107.315 498.251 106.76C497.782 106.205 497.153 105.928 496.363 105.928C495.841 105.928 495.382 106.056 494.987 106.312C494.603 106.557 494.305 106.92 494.091 107.4C493.878 107.869 493.771 108.44 493.771 109.112C493.771 110.136 494.006 110.925 494.475 111.48C494.945 112.035 495.574 112.312 496.363 112.312ZM504.254 113.128C503.54 113.128 502.985 112.904 502.59 112.456C502.206 112.008 502.014 111.373 502.014 110.552V102.12C502.014 101.949 502.057 101.827 502.142 101.752C502.228 101.667 502.35 101.624 502.51 101.624C502.66 101.624 502.777 101.667 502.862 101.752C502.948 101.827 502.99 101.949 502.99 102.12V110.44C502.99 111.059 503.113 111.523 503.358 111.832C503.604 112.131 503.961 112.28 504.43 112.28C504.537 112.28 504.628 112.275 504.702 112.264C504.777 112.253 504.852 112.248 504.926 112.248C505.022 112.237 505.092 112.259 505.134 112.312C505.188 112.355 505.214 112.451 505.214 112.6C505.214 112.749 505.177 112.861 505.102 112.936C505.028 113.011 504.905 113.064 504.734 113.096C504.66 113.107 504.58 113.112 504.494 113.112C504.42 113.123 504.34 113.128 504.254 113.128ZM509.587 113.128C508.861 113.128 508.232 112.963 507.699 112.632C507.165 112.301 506.749 111.837 506.451 111.24C506.163 110.643 506.019 109.933 506.019 109.112C506.019 108.504 506.099 107.955 506.259 107.464C506.429 106.973 506.669 106.552 506.979 106.2C507.299 105.837 507.677 105.565 508.115 105.384C508.563 105.192 509.053 105.096 509.587 105.096C510.323 105.096 510.957 105.261 511.491 105.592C512.024 105.923 512.435 106.392 512.723 107C513.021 107.597 513.171 108.301 513.171 109.112C513.171 109.731 513.085 110.285 512.915 110.776C512.755 111.267 512.515 111.688 512.195 112.04C511.885 112.392 511.512 112.664 511.075 112.856C510.637 113.037 510.141 113.128 509.587 113.128ZM509.587 112.312C510.12 112.312 510.579 112.189 510.963 111.944C511.357 111.688 511.656 111.32 511.859 110.84C512.072 110.36 512.179 109.784 512.179 109.112C512.179 108.099 511.944 107.315 511.475 106.76C511.016 106.205 510.387 105.928 509.587 105.928C509.064 105.928 508.605 106.056 508.211 106.312C507.827 106.557 507.528 106.92 507.315 107.4C507.112 107.869 507.011 108.44 507.011 109.112C507.011 110.136 507.245 110.925 507.715 111.48C508.184 112.035 508.808 112.312 509.587 112.312ZM518.417 113.128C517.659 113.128 517.009 112.963 516.465 112.632C515.921 112.291 515.499 111.816 515.201 111.208C514.913 110.589 514.769 109.875 514.769 109.064C514.769 108.445 514.849 107.896 515.009 107.416C515.179 106.925 515.419 106.509 515.729 106.168C516.049 105.827 516.433 105.565 516.881 105.384C517.339 105.192 517.851 105.096 518.417 105.096C518.811 105.096 519.217 105.165 519.633 105.304C520.049 105.432 520.427 105.651 520.769 105.96C520.843 106.024 520.891 106.099 520.913 106.184C520.934 106.269 520.929 106.355 520.897 106.44C520.865 106.515 520.817 106.579 520.753 106.632C520.689 106.675 520.609 106.701 520.513 106.712C520.427 106.712 520.337 106.669 520.241 106.584C519.942 106.339 519.638 106.173 519.329 106.088C519.03 105.992 518.737 105.944 518.449 105.944C518.011 105.944 517.627 106.013 517.297 106.152C516.966 106.291 516.683 106.493 516.449 106.76C516.225 107.027 516.054 107.357 515.937 107.752C515.819 108.136 515.761 108.579 515.761 109.08C515.761 110.083 515.99 110.872 516.449 111.448C516.918 112.013 517.585 112.296 518.449 112.296C518.737 112.296 519.03 112.253 519.329 112.168C519.638 112.072 519.942 111.901 520.241 111.656C520.337 111.571 520.427 111.533 520.513 111.544C520.609 111.544 520.689 111.571 520.753 111.624C520.817 111.667 520.859 111.731 520.881 111.816C520.913 111.891 520.918 111.971 520.897 112.056C520.875 112.141 520.827 112.216 520.753 112.28C520.422 112.589 520.049 112.808 519.633 112.936C519.217 113.064 518.811 113.128 518.417 113.128ZM523.089 113.096C522.929 113.096 522.806 113.053 522.721 112.968C522.635 112.883 522.593 112.76 522.593 112.6V102.12C522.593 101.949 522.635 101.827 522.721 101.752C522.806 101.667 522.929 101.624 523.089 101.624C523.238 101.624 523.355 101.667 523.441 101.752C523.526 101.827 523.569 101.949 523.569 102.12V108.76H523.601L527.185 105.48C527.302 105.373 527.403 105.288 527.489 105.224C527.585 105.16 527.707 105.128 527.857 105.128C527.985 105.128 528.086 105.165 528.161 105.24C528.235 105.315 528.267 105.405 528.257 105.512C528.257 105.608 528.203 105.715 528.097 105.832L524.289 109.304V108.68L528.433 112.36C528.561 112.477 528.625 112.595 528.625 112.712C528.635 112.819 528.603 112.909 528.529 112.984C528.454 113.059 528.353 113.096 528.225 113.096C528.086 113.096 527.969 113.064 527.873 113C527.777 112.947 527.659 112.856 527.521 112.728L523.601 109.272H523.569V112.6C523.569 112.931 523.409 113.096 523.089 113.096ZM534.982 113.096C534.843 113.096 534.742 113.048 534.678 112.952C534.624 112.856 534.614 112.723 534.646 112.552L535.158 109.912L535.542 110.008H534.07C533.974 110.008 533.883 109.992 533.798 109.96C533.723 109.928 533.664 109.885 533.622 109.832C533.59 109.768 533.574 109.699 533.574 109.624C533.574 109.485 533.616 109.384 533.702 109.32C533.787 109.256 533.91 109.224 534.07 109.224H535.67L535.27 109.336L536.07 105.224L536.39 105.368H534.39C534.283 105.368 534.187 105.352 534.102 105.32C534.027 105.288 533.968 105.245 533.926 105.192C533.894 105.128 533.878 105.053 533.878 104.968C533.878 104.84 533.92 104.744 534.006 104.68C534.102 104.616 534.23 104.584 534.39 104.584H536.534L536.15 104.68L536.662 102.072C536.694 101.912 536.752 101.8 536.838 101.736C536.934 101.661 537.046 101.624 537.174 101.624C537.302 101.624 537.392 101.672 537.446 101.768C537.499 101.853 537.51 101.987 537.478 102.168L537.03 104.584H539.814L540.278 102.072C540.31 101.912 540.368 101.8 540.454 101.736C540.55 101.661 540.667 101.624 540.806 101.624C540.934 101.624 541.024 101.672 541.078 101.768C541.131 101.853 541.142 101.987 541.11 102.168L540.63 104.68L540.31 104.584H541.718C541.824 104.584 541.915 104.6 541.99 104.632C542.064 104.664 542.118 104.707 542.15 104.76C542.192 104.813 542.214 104.883 542.214 104.968C542.214 105.096 542.171 105.197 542.086 105.272C542 105.336 541.878 105.368 541.718 105.368H540.15L540.534 105.224L539.734 109.352L539.398 109.224H541.398C541.515 109.224 541.611 109.24 541.686 109.272C541.76 109.304 541.814 109.347 541.846 109.4C541.888 109.453 541.91 109.528 541.91 109.624C541.91 109.752 541.867 109.848 541.782 109.912C541.696 109.976 541.568 110.008 541.398 110.008H539.254L539.638 109.912L539.094 112.648C539.062 112.808 539.003 112.925 538.918 113C538.832 113.064 538.72 113.096 538.582 113.096C538.454 113.096 538.358 113.053 538.294 112.968C538.24 112.872 538.23 112.733 538.262 112.552L538.742 110.008H535.974L535.478 112.648C535.446 112.808 535.387 112.925 535.302 113C535.227 113.064 535.12 113.096 534.982 113.096ZM536.118 109.224H538.902L539.654 105.368H536.87L536.118 109.224ZM547.391 113.128C546.752 113.128 546.122 113.032 545.504 112.84C544.885 112.648 544.346 112.36 543.888 111.976C543.781 111.901 543.712 111.816 543.68 111.72C543.658 111.624 543.658 111.533 543.68 111.448C543.701 111.363 543.744 111.288 543.808 111.224C543.872 111.16 543.952 111.128 544.048 111.128C544.144 111.117 544.25 111.155 544.368 111.24C544.848 111.581 545.333 111.832 545.824 111.992C546.325 112.152 546.848 112.232 547.391 112.232C547.968 112.232 548.453 112.147 548.848 111.976C549.242 111.795 549.541 111.533 549.744 111.192C549.957 110.851 550.064 110.429 550.064 109.928C550.064 109.203 549.824 108.653 549.344 108.28C548.874 107.896 548.192 107.704 547.296 107.704H546.096C545.946 107.704 545.829 107.667 545.744 107.592C545.658 107.507 545.616 107.4 545.616 107.272C545.616 107.133 545.658 107.027 545.744 106.952C545.829 106.877 545.946 106.84 546.096 106.84H547.216C547.738 106.84 548.186 106.744 548.56 106.552C548.933 106.36 549.221 106.093 549.424 105.752C549.637 105.4 549.744 104.979 549.744 104.488C549.744 103.848 549.536 103.357 549.12 103.016C548.714 102.664 548.122 102.488 547.344 102.488C546.821 102.488 546.33 102.573 545.872 102.744C545.413 102.904 544.976 103.165 544.56 103.528C544.464 103.613 544.368 103.661 544.272 103.672C544.176 103.672 544.09 103.645 544.016 103.592C543.952 103.539 543.904 103.469 543.872 103.384C543.84 103.288 543.84 103.192 543.872 103.096C543.904 102.989 543.973 102.893 544.08 102.808C544.496 102.413 544.992 102.115 545.568 101.912C546.154 101.699 546.757 101.592 547.376 101.592C548.08 101.592 548.682 101.704 549.184 101.928C549.685 102.152 550.069 102.477 550.336 102.904C550.613 103.331 550.752 103.843 550.752 104.44C550.752 104.909 550.661 105.336 550.48 105.72C550.309 106.104 550.064 106.429 549.744 106.696C549.424 106.963 549.04 107.155 548.592 107.272V107.096C549.37 107.235 549.973 107.56 550.4 108.072C550.837 108.573 551.056 109.208 551.056 109.976C551.056 110.616 550.906 111.176 550.608 111.656C550.32 112.125 549.904 112.488 549.36 112.744C548.816 113 548.16 113.128 547.391 113.128Z" fill="black"/>
<path d="M380 120.333C387.364 120.333 393.333 114.364 393.333 107C393.333 99.6362 387.364 93.6666 380 93.6666C372.636 93.6666 366.667 99.6362 366.667 107C366.667 114.364 372.636 120.333 380 120.333Z" stroke="#AD7C00" stroke-width="2" stroke-linecap="round" stroke-linejoin="round" stroke-dasharray="4 4"/>
</g>
<defs>
<filter id="filter0_dddd_2003_1886" x="140" y="27" width="362" height="422" filterUnits="userSpaceOnUse" color-interpolation-filters="sRGB">
<feFlood flood-opacity="0" result="BackgroundImageFix"/>
<feColorMatrix in="SourceAlpha" type="matrix" values="0 0 0 0 0 0 0 0 0 0 0 0 0 0 0 0 0 0 127 0" result="hardAlpha"/>
<feOffset dx="1" dy="5"/>
<feGaussianBlur stdDeviation="5.5"/>
<feColorMatrix type="matrix" values="0 0 0 0 0 0 0 0 0 0 0 0 0 0 0 0 0 0 0.08 0"/>
<feBlend mode="normal" in2="BackgroundImageFix" result="effect1_dropShadow_2003_1886"/>
<feColorMatrix in="SourceAlpha" type="matrix" values="0 0 0 0 0 0 0 0 0 0 0 0 0 0 0 0 0 0 127 0" result="hardAlpha"/>
<feOffset dx="2" dy="20"/>
<feGaussianBlur stdDeviation="10.5"/>
<feColorMatrix type="matrix" values="0 0 0 0 0 0 0 0 0 0 0 0 0 0 0 0 0 0 0.06 0"/>
<feBlend mode="normal" in2="effect1_dropShadow_2003_1886" result="effect2_dropShadow_2003_1886"/>
<feColorMatrix in="SourceAlpha" type="matrix" values="0 0 0 0 0 0 0 0 0 0 0 0 0 0 0 0 0 0 127 0" result="hardAlpha"/>
<feOffset dx="5" dy="46"/>
<feGaussianBlur stdDeviation="14"/>
<feColorMatrix type="matrix" values="0 0 0 0 0 0 0 0 0 0 0 0 0 0 0 0 0 0 0.04 0"/>
<feBlend mode="normal" in2="effect2_dropShadow_2003_1886" result="effect3_dropShadow_2003_1886"/>
<feColorMatrix in="SourceAlpha" type="matrix" values="0 0 0 0 0 0 0 0 0 0 0 0 0 0 0 0 0 0 127 0" result="hardAlpha"/>
<feOffset dx="10" dy="82"/>
<feGaussianBlur stdDeviation="16.5"/>
<feColorMatrix type="matrix" values="0 0 0 0 0 0 0 0 0 0 0 0 0 0 0 0 0 0 0.01 0"/>
<feBlend mode="normal" in2="effect3_dropShadow_2003_1886" result="effect4_dropShadow_2003_1886"/>
<feBlend mode="normal" in="SourceGraphic" in2="effect4_dropShadow_2003_1886" result="shape"/>
</filter>
<filter id="filter1_dddd_2003_1886" x="25" y="131" width="297" height="193" filterUnits="userSpaceOnUse" color-interpolation-filters="sRGB">
<feFlood flood-opacity="0" result="BackgroundImageFix"/>
<feColorMatrix in="SourceAlpha" type="matrix" values="0 0 0 0 0 0 0 0 0 0 0 0 0 0 0 0 0 0 127 0" result="hardAlpha"/>
<feOffset dx="1" dy="5"/>
<feGaussianBlur stdDeviation="5.5"/>
<feColorMatrix type="matrix" values="0 0 0 0 0 0 0 0 0 0 0 0 0 0 0 0 0 0 0.08 0"/>
<feBlend mode="normal" in2="BackgroundImageFix" result="effect1_dropShadow_2003_1886"/>
<feColorMatrix in="SourceAlpha" type="matrix" values="0 0 0 0 0 0 0 0 0 0 0 0 0 0 0 0 0 0 127 0" result="hardAlpha"/>
<feOffset dx="2" dy="20"/>
<feGaussianBlur stdDeviation="10.5"/>
<feColorMatrix type="matrix" values="0 0 0 0 0 0 0 0 0 0 0 0 0 0 0 0 0 0 0.06 0"/>
<feBlend mode="normal" in2="effect1_dropShadow_2003_1886" result="effect2_dropShadow_2003_1886"/>
<feColorMatrix in="SourceAlpha" type="matrix" values="0 0 0 0 0 0 0 0 0 0 0 0 0 0 0 0 0 0 127 0" result="hardAlpha"/>
<feOffset dx="5" dy="46"/>
<feGaussianBlur stdDeviation="14"/>
<feColorMatrix type="matrix" values="0 0 0 0 0 0 0 0 0 0 0 0 0 0 0 0 0 0 0.04 0"/>
<feBlend mode="normal" in2="effect2_dropShadow_2003_1886" result="effect3_dropShadow_2003_1886"/>
<feColorMatrix in="SourceAlpha" type="matrix" values="0 0 0 0 0 0 0 0 0 0 0 0 0 0 0 0 0 0 127 0" result="hardAlpha"/>
<feOffset dx="10" dy="82"/>
<feGaussianBlur stdDeviation="16.5"/>
<feColorMatrix type="matrix" values="0 0 0 0 0 0 0 0 0 0 0 0 0 0 0 0 0 0 0.01 0"/>
<feBlend mode="normal" in2="effect3_dropShadow_2003_1886" result="effect4_dropShadow_2003_1886"/>
<feBlend mode="normal" in="SourceGraphic" in2="effect4_dropShadow_2003_1886" result="shape"/>
</filter>
<filter id="filter2_dddd_2003_1886" x="321" y="65" width="297" height="193" filterUnits="userSpaceOnUse" color-interpolation-filters="sRGB">
<feFlood flood-opacity="0" result="BackgroundImageFix"/>
<feColorMatrix in="SourceAlpha" type="matrix" values="0 0 0 0 0 0 0 0 0 0 0 0 0 0 0 0 0 0 127 0" result="hardAlpha"/>
<feOffset dx="1" dy="5"/>
<feGaussianBlur stdDeviation="5.5"/>
<feColorMatrix type="matrix" values="0 0 0 0 0 0 0 0 0 0 0 0 0 0 0 0 0 0 0.08 0"/>
<feBlend mode="normal" in2="BackgroundImageFix" result="effect1_dropShadow_2003_1886"/>
<feColorMatrix in="SourceAlpha" type="matrix" values="0 0 0 0 0 0 0 0 0 0 0 0 0 0 0 0 0 0 127 0" result="hardAlpha"/>
<feOffset dx="2" dy="20"/>
<feGaussianBlur stdDeviation="10.5"/>
<feColorMatrix type="matrix" values="0 0 0 0 0 0 0 0 0 0 0 0 0 0 0 0 0 0 0.06 0"/>
<feBlend mode="normal" in2="effect1_dropShadow_2003_1886" result="effect2_dropShadow_2003_1886"/>
<feColorMatrix in="SourceAlpha" type="matrix" values="0 0 0 0 0 0 0 0 0 0 0 0 0 0 0 0 0 0 127 0" result="hardAlpha"/>
<feOffset dx="5" dy="46"/>
<feGaussianBlur stdDeviation="14"/>
<feColorMatrix type="matrix" values="0 0 0 0 0 0 0 0 0 0 0 0 0 0 0 0 0 0 0.04 0"/>
<feBlend mode="normal" in2="effect2_dropShadow_2003_1886" result="effect3_dropShadow_2003_1886"/>
<feColorMatrix in="SourceAlpha" type="matrix" values="0 0 0 0 0 0 0 0 0 0 0 0 0 0 0 0 0 0 127 0" result="hardAlpha"/>
<feOffset dx="10" dy="82"/>
<feGaussianBlur stdDeviation="16.5"/>
<feColorMatrix type="matrix" values="0 0 0 0 0 0 0 0 0 0 0 0 0 0 0 0 0 0 0.01 0"/>
<feBlend mode="normal" in2="effect3_dropShadow_2003_1886" result="effect4_dropShadow_2003_1886"/>
<feBlend mode="normal" in="SourceGraphic" in2="effect4_dropShadow_2003_1886" result="shape"/>
</filter>
<linearGradient id="paint0_linear_2003_1886" x1="188.517" y1="7.91667" x2="425.749" y2="332.48" gradientUnits="userSpaceOnUse">
<stop stop-opacity="0"/>
<stop offset="1" stop-opacity="0.5"/>
</linearGradient>
<linearGradient id="paint1_linear_2003_1886" x1="67.9138" y1="131" x2="93.3243" y2="244.421" gradientUnits="userSpaceOnUse">
<stop stop-color="white" stop-opacity="0"/>
<stop offset="1" stop-color="#AD7C00" stop-opacity="0.06"/>
</linearGradient>
<linearGradient id="paint2_linear_2003_1886" x1="363.914" y1="65" x2="389.324" y2="178.421" gradientUnits="userSpaceOnUse">
<stop stop-color="white" stop-opacity="0"/>
<stop offset="1" stop-color="#AD7C00" stop-opacity="0.06"/>
</linearGradient>
</defs>
</svg>
