<svg width="602" height="201" viewBox="0 0 602 201" fill="none" xmlns="http://www.w3.org/2000/svg">
<g filter="url(#filter0_dddd_2003_1926)">
<mask id="path-1-inside-1_2003_1926" fill="white">
<path d="M30.5 37.0233C30.5 20.9942 43.4942 8 59.5233 8H522.477C538.506 8 551.5 20.9942 551.5 37.0233V133.977C551.5 150.006 538.506 163 522.477 163H59.5232C43.4941 163 30.5 150.006 30.5 133.977V37.0233Z"/>
</mask>
<path d="M30.5 37.0233C30.5 20.9942 43.4942 8 59.5233 8H522.477C538.506 8 551.5 20.9942 551.5 37.0233V133.977C551.5 150.006 538.506 163 522.477 163H59.5232C43.4941 163 30.5 150.006 30.5 133.977V37.0233Z" fill="white"/>
<path d="M30.5 37.0233C30.5 20.9942 43.4942 8 59.5233 8H522.477C538.506 8 551.5 20.9942 551.5 37.0233V133.977C551.5 150.006 538.506 163 522.477 163H59.5232C43.4941 163 30.5 150.006 30.5 133.977V37.0233Z" fill="url(#paint0_linear_2003_1926)" fill-opacity="0.32" style="mix-blend-mode:luminosity"/>
<path d="M59.5233 8V9.31924H522.477V8V6.68076H59.5233V8ZM551.5 37.0233H550.181V133.977H551.5H552.819V37.0233H551.5ZM522.477 163V161.681H59.5232V163V164.319H522.477V163ZM30.5 133.977H31.8192V37.0233H30.5H29.1808V133.977H30.5ZM59.5232 163V161.681C44.2227 161.681 31.8192 149.277 31.8192 133.977H30.5H29.1808C29.1808 150.734 42.7655 164.319 59.5232 164.319V163ZM551.5 133.977H550.181C550.181 149.277 537.777 161.681 522.477 161.681V163V164.319C539.234 164.319 552.819 150.734 552.819 133.977H551.5ZM522.477 8V9.31924C537.777 9.31924 550.181 21.7227 550.181 37.0233H551.5H552.819C552.819 20.2656 539.234 6.68076 522.477 6.68076V8ZM59.5233 8V6.68076C42.7656 6.68076 29.1808 20.2656 29.1808 37.0233H30.5H31.8192C31.8192 21.7227 44.2227 9.31924 59.5233 9.31924V8Z" fill="black" fill-opacity="0.16" mask="url(#path-1-inside-1_2003_1926)"/>
<path d="M71.148 60.34C69.7653 60.34 68.4733 60.17 67.272 59.83C66.0933 59.49 65.0053 58.98 64.008 58.3C63.0107 57.62 62.1153 56.7813 61.322 55.784L63.09 53.676C64.2913 55.172 65.5493 56.2487 66.864 56.906C68.2013 57.5407 69.6747 57.858 71.284 57.858C72.4853 57.858 73.5847 57.688 74.582 57.348C75.5793 57.008 76.3613 56.5093 76.928 55.852C77.5173 55.1947 77.812 54.4353 77.812 53.574C77.812 52.9847 77.676 52.486 77.404 52.078C77.132 51.6473 76.758 51.2847 76.282 50.99C75.8287 50.6953 75.296 50.446 74.684 50.242C74.072 50.0153 73.4373 49.834 72.78 49.698C72.1227 49.5393 71.454 49.392 70.774 49.256C69.5273 49.0067 68.394 48.712 67.374 48.372C66.354 48.032 65.47 47.6013 64.722 47.08C63.9967 46.5587 63.4413 45.9353 63.056 45.21C62.6707 44.4847 62.478 43.6007 62.478 42.558C62.478 41.5833 62.6933 40.688 63.124 39.872C63.5773 39.056 64.2007 38.3647 64.994 37.798C65.7873 37.2087 66.7167 36.7553 67.782 36.438C68.8473 36.1207 69.992 35.962 71.216 35.962C72.576 35.962 73.8 36.132 74.888 36.472C75.976 36.7893 76.9393 37.2653 77.778 37.9C78.6167 38.512 79.342 39.2713 79.954 40.178L78.152 42.082C77.5853 41.3113 76.9507 40.654 76.248 40.11C75.5453 39.5433 74.7633 39.124 73.902 38.852C73.0633 38.5573 72.1567 38.41 71.182 38.41C70.0487 38.41 69.0287 38.58 68.122 38.92C67.238 39.26 66.5353 39.736 66.014 40.348C65.4927 40.9373 65.232 41.6287 65.232 42.422C65.232 43.0567 65.3793 43.612 65.674 44.088C65.9687 44.5413 66.3993 44.9267 66.966 45.244C67.5327 45.5613 68.2353 45.8447 69.074 46.094C69.9353 46.3207 70.8873 46.5247 71.93 46.706C73.1087 46.9327 74.2193 47.2047 75.262 47.522C76.3047 47.8393 77.2227 48.236 78.016 48.712C78.832 49.188 79.4553 49.8 79.886 50.548C80.3393 51.2733 80.566 52.1573 80.566 53.2C80.566 54.6053 80.1693 55.852 79.376 56.94C78.6053 58.0053 77.5173 58.844 76.112 59.456C74.7067 60.0453 73.052 60.34 71.148 60.34ZM90.1683 60V37.186H92.7523V60H90.1683ZM85.3063 44.7V42.252H98.2603V44.7H85.3063ZM111.681 60.34C109.867 60.34 108.258 59.9433 106.853 59.15C105.47 58.3567 104.382 57.2687 103.589 55.886C102.818 54.4807 102.433 52.8827 102.433 51.092C102.433 49.3013 102.841 47.7147 103.657 46.332C104.473 44.9267 105.583 43.8273 106.989 43.034C108.394 42.2407 109.992 41.844 111.783 41.844C112.893 41.844 113.913 41.9913 114.843 42.286C115.795 42.5807 116.622 42.9887 117.325 43.51C118.05 44.0313 118.639 44.6207 119.093 45.278C119.546 45.9127 119.829 46.57 119.943 47.25L119.127 47.012L119.229 42.252H121.745V60H119.195V55.376L119.875 55.002C119.739 55.682 119.433 56.3393 118.957 56.974C118.481 57.6087 117.869 58.1867 117.121 58.708C116.373 59.2067 115.534 59.6033 114.605 59.898C113.675 60.1927 112.701 60.34 111.681 60.34ZM112.225 57.892C113.585 57.892 114.797 57.6087 115.863 57.042C116.951 56.4527 117.801 55.648 118.413 54.628C119.025 53.5853 119.331 52.4067 119.331 51.092C119.331 49.8 119.025 48.644 118.413 47.624C117.801 46.604 116.951 45.788 115.863 45.176C114.797 44.564 113.585 44.258 112.225 44.258C110.819 44.258 109.584 44.564 108.519 45.176C107.453 45.788 106.615 46.604 106.003 47.624C105.391 48.644 105.085 49.8 105.085 51.092C105.085 52.4067 105.379 53.574 105.969 54.594C106.558 55.614 107.385 56.4187 108.451 57.008C109.539 57.5973 110.797 57.892 112.225 57.892ZM132.209 54.662L132.277 51.738L143.191 42.252H146.693L132.209 54.662ZM130.101 60V34.84H132.583V60H130.101ZM143.939 60L135.609 50.684L137.377 48.95L147.271 60H143.939ZM153.71 60V42.252H156.294V60H153.71ZM154.968 38.342C154.356 38.342 153.88 38.1833 153.54 37.866C153.2 37.526 153.03 37.0613 153.03 36.472C153.03 35.928 153.2 35.486 153.54 35.146C153.902 34.7833 154.378 34.602 154.968 34.602C155.602 34.602 156.078 34.772 156.396 35.112C156.736 35.4293 156.906 35.8827 156.906 36.472C156.906 37.016 156.736 37.4693 156.396 37.832C156.056 38.172 155.58 38.342 154.968 38.342ZM165.313 60V42.252H167.829L167.931 46.502L167.319 46.604C167.637 45.788 168.147 45.0287 168.849 44.326C169.575 43.6007 170.447 43.0113 171.467 42.558C172.51 42.082 173.598 41.844 174.731 41.844C176.25 41.844 177.519 42.15 178.539 42.762C179.582 43.3513 180.364 44.2013 180.885 45.312C181.407 46.4227 181.667 47.7713 181.667 49.358V60H179.083V49.63C179.083 48.4513 178.879 47.4653 178.471 46.672C178.063 45.8787 177.474 45.278 176.703 44.87C175.955 44.4393 175.071 44.2353 174.051 44.258C173.145 44.258 172.317 44.4167 171.569 44.734C170.821 45.0513 170.164 45.4707 169.597 45.992C169.053 46.4907 168.623 47.0687 168.305 47.726C168.011 48.3607 167.863 49.018 167.863 49.698V60H166.605C166.379 60 166.152 60 165.925 60C165.721 60 165.517 60 165.313 60ZM198.434 67.82C196.848 67.82 195.42 67.6047 194.15 67.174C192.904 66.766 191.861 66.2673 191.022 65.678L192.042 63.468C192.518 63.808 193.085 64.1253 193.742 64.42C194.4 64.7147 195.125 64.9527 195.918 65.134C196.734 65.338 197.596 65.44 198.502 65.44C199.84 65.44 201.007 65.1793 202.004 64.658C203.002 64.1593 203.772 63.4 204.316 62.38C204.86 61.36 205.132 60.0793 205.132 58.538V55.58L205.574 55.478C205.302 56.362 204.77 57.178 203.976 57.926C203.206 58.6513 202.254 59.2293 201.12 59.66C199.987 60.0907 198.774 60.306 197.482 60.306C195.692 60.306 194.105 59.9093 192.722 59.116C191.34 58.3227 190.24 57.2347 189.424 55.852C188.631 54.4467 188.234 52.86 188.234 51.092C188.234 49.3013 188.642 47.7147 189.458 46.332C190.297 44.9493 191.419 43.8613 192.824 43.068C194.23 42.252 195.828 41.844 197.618 41.844C198.321 41.844 199.024 41.9233 199.726 42.082C200.452 42.2407 201.143 42.4673 201.8 42.762C202.458 43.0567 203.058 43.408 203.602 43.816C204.146 44.224 204.611 44.6887 204.996 45.21C205.382 45.7087 205.642 46.23 205.778 46.774L205.064 46.672L205.132 42.252H207.716V58.368C207.716 59.9547 207.478 61.326 207.002 62.482C206.526 63.6607 205.869 64.6467 205.03 65.44C204.192 66.2333 203.206 66.8227 202.072 67.208C200.939 67.616 199.726 67.82 198.434 67.82ZM198.06 57.892C199.466 57.892 200.701 57.5973 201.766 57.008C202.854 56.4187 203.704 55.614 204.316 54.594C204.928 53.574 205.234 52.4067 205.234 51.092C205.212 49.7547 204.894 48.576 204.282 47.556C203.67 46.5133 202.82 45.7087 201.732 45.142C200.667 44.5527 199.443 44.258 198.06 44.258C196.678 44.258 195.442 44.5527 194.354 45.142C193.289 45.7313 192.439 46.5473 191.804 47.59C191.192 48.61 190.886 49.766 190.886 51.058C190.886 52.3727 191.192 53.5513 191.804 54.594C192.416 55.614 193.255 56.4187 194.32 57.008C195.408 57.5973 196.655 57.892 198.06 57.892Z" fill="black"/>
<rect x="58.5" y="93.3848" width="208" height="51" rx="15" fill="#D9D9D9"/>
<path d="M85.2018 126.18C84.2418 126.18 83.3538 126.024 82.5378 125.712C81.7218 125.388 81.0078 124.938 80.3958 124.362C79.7838 123.774 79.3098 123.09 78.9738 122.31C78.6498 121.518 78.4878 120.648 78.4878 119.7C78.4878 118.776 78.6558 117.93 78.9918 117.162C79.3278 116.382 79.7958 115.704 80.3958 115.128C81.0078 114.552 81.7158 114.108 82.5198 113.796C83.3358 113.472 84.2118 113.31 85.1478 113.31C85.8078 113.31 86.4558 113.406 87.0918 113.598C87.7278 113.79 88.3098 114.048 88.8378 114.372C89.3778 114.684 89.8158 115.038 90.1518 115.434L89.2338 116.55C88.8978 116.166 88.5078 115.842 88.0638 115.578C87.6318 115.302 87.1638 115.086 86.6598 114.93C86.1558 114.774 85.6338 114.696 85.0938 114.696C84.3858 114.696 83.7138 114.816 83.0778 115.056C82.4418 115.296 81.8898 115.644 81.4218 116.1C80.9658 116.544 80.6058 117.072 80.3418 117.684C80.0778 118.296 79.9458 118.968 79.9458 119.7C79.9458 120.456 80.0778 121.152 80.3418 121.788C80.6178 122.412 80.9958 122.946 81.4758 123.39C81.9678 123.834 82.5378 124.182 83.1858 124.434C83.8338 124.674 84.5418 124.794 85.3098 124.794C85.8618 124.794 86.3838 124.722 86.8758 124.578C87.3798 124.422 87.8298 124.224 88.2258 123.984C88.6338 123.732 88.9818 123.45 89.2698 123.138L89.9718 124.326C89.6718 124.65 89.2698 124.956 88.7658 125.244C88.2618 125.52 87.6978 125.748 87.0738 125.928C86.4618 126.096 85.8378 126.18 85.2018 126.18ZM97.1335 126.18C96.3415 126.18 95.6695 126.018 95.1175 125.694C94.5655 125.37 94.1395 124.902 93.8395 124.29C93.5515 123.666 93.4075 122.916 93.4075 122.04V116.604H94.7755V121.716C94.7755 122.4 94.8775 122.982 95.0815 123.462C95.2855 123.93 95.5915 124.284 95.9995 124.524C96.4075 124.764 96.9055 124.884 97.4935 124.884C97.9615 124.884 98.3935 124.806 98.7895 124.65C99.1975 124.494 99.5455 124.284 99.8335 124.02C100.134 123.744 100.368 123.426 100.536 123.066C100.704 122.706 100.788 122.316 100.788 121.896V116.604H102.156V126H100.806L100.752 123.912L100.986 123.804C100.854 124.212 100.602 124.602 100.23 124.974C99.8575 125.334 99.4015 125.628 98.8615 125.856C98.3335 126.072 97.7575 126.18 97.1335 126.18ZM106.556 126V116.604H107.906L107.942 119.286L107.69 119.124C107.846 118.62 108.098 118.164 108.446 117.756C108.794 117.336 109.202 117.006 109.67 116.766C110.138 116.514 110.642 116.388 111.182 116.388C111.482 116.388 111.77 116.418 112.046 116.478C112.334 116.526 112.562 116.598 112.73 116.694L112.352 118.17C112.148 118.05 111.92 117.966 111.668 117.918C111.416 117.87 111.182 117.846 110.966 117.846C110.486 117.846 110.054 117.93 109.67 118.098C109.298 118.266 108.98 118.494 108.716 118.782C108.452 119.058 108.254 119.376 108.122 119.736C107.99 120.084 107.924 120.45 107.924 120.834V126H106.556ZM115.815 126V116.604H117.165L117.201 119.286L116.949 119.124C117.105 118.62 117.357 118.164 117.705 117.756C118.053 117.336 118.461 117.006 118.929 116.766C119.397 116.514 119.901 116.388 120.441 116.388C120.741 116.388 121.029 116.418 121.305 116.478C121.593 116.526 121.821 116.598 121.989 116.694L121.611 118.17C121.407 118.05 121.179 117.966 120.927 117.918C120.675 117.87 120.441 117.846 120.225 117.846C119.745 117.846 119.313 117.93 118.929 118.098C118.557 118.266 118.239 118.494 117.975 118.782C117.711 119.058 117.513 119.376 117.381 119.736C117.249 120.084 117.183 120.45 117.183 120.834V126H115.815ZM128.918 126.18C127.874 126.18 126.938 125.976 126.11 125.568C125.294 125.16 124.658 124.59 124.202 123.858C123.746 123.126 123.518 122.286 123.518 121.338C123.518 120.582 123.65 119.91 123.914 119.322C124.178 118.722 124.544 118.2 125.012 117.756C125.492 117.312 126.05 116.97 126.686 116.73C127.334 116.49 128.024 116.37 128.756 116.37C129.464 116.37 130.112 116.484 130.7 116.712C131.288 116.928 131.798 117.24 132.23 117.648C132.662 118.056 132.992 118.536 133.22 119.088C133.448 119.64 133.55 120.252 133.526 120.924L133.508 121.626H124.616L124.418 120.492H132.482L132.158 120.726V120.294C132.134 119.862 131.978 119.448 131.69 119.052C131.402 118.644 131.006 118.314 130.502 118.062C129.998 117.798 129.416 117.666 128.756 117.666C128.012 117.666 127.346 117.798 126.758 118.062C126.182 118.314 125.726 118.704 125.39 119.232C125.066 119.76 124.904 120.432 124.904 121.248C124.904 121.992 125.078 122.634 125.426 123.174C125.774 123.714 126.26 124.134 126.884 124.434C127.52 124.734 128.276 124.884 129.152 124.884C129.8 124.884 130.382 124.794 130.898 124.614C131.414 124.434 131.936 124.152 132.464 123.768L133.112 124.776C132.8 125.028 132.428 125.262 131.996 125.478C131.564 125.694 131.09 125.868 130.574 126C130.058 126.12 129.506 126.18 128.918 126.18ZM137.094 126V116.604H138.426L138.48 118.854L138.156 118.908C138.324 118.476 138.594 118.074 138.966 117.702C139.35 117.318 139.812 117.006 140.352 116.766C140.904 116.514 141.48 116.388 142.08 116.388C142.884 116.388 143.556 116.55 144.096 116.874C144.648 117.186 145.062 117.636 145.338 118.224C145.614 118.812 145.752 119.526 145.752 120.366V126H144.384V120.51C144.384 119.886 144.276 119.364 144.06 118.944C143.844 118.524 143.532 118.206 143.124 117.99C142.728 117.762 142.26 117.654 141.72 117.666C141.24 117.666 140.802 117.75 140.406 117.918C140.01 118.086 139.662 118.308 139.362 118.584C139.074 118.848 138.846 119.154 138.678 119.502C138.522 119.838 138.444 120.186 138.444 120.546V126H137.778C137.658 126 137.538 126 137.418 126C137.31 126 137.202 126 137.094 126ZM151.694 126V113.922H153.062V126H151.694ZM149.12 117.9V116.604H155.978V117.9H149.12ZM164.347 126L169.693 113.4H171.349L176.659 126H175.111L171.475 117.396C171.367 117.108 171.259 116.832 171.151 116.568C171.055 116.292 170.953 116.028 170.845 115.776C170.749 115.512 170.653 115.248 170.557 114.984C170.461 114.72 170.365 114.456 170.269 114.192H170.665C170.557 114.504 170.455 114.798 170.359 115.074C170.263 115.338 170.161 115.596 170.053 115.848C169.957 116.1 169.855 116.358 169.747 116.622C169.639 116.886 169.525 117.174 169.405 117.486L165.787 126H164.347ZM166.579 122.598L167.137 121.23H173.779L174.247 122.598H166.579ZM179.899 126V113.4H185.731C186.427 113.4 187.051 113.562 187.603 113.886C188.167 114.21 188.611 114.66 188.935 115.236C189.271 115.8 189.439 116.436 189.439 117.144C189.439 117.9 189.265 118.578 188.917 119.178C188.581 119.766 188.125 120.234 187.549 120.582C186.985 120.93 186.349 121.104 185.641 121.104H181.303V126H179.899ZM181.303 119.736H185.641C186.073 119.736 186.463 119.622 186.811 119.394C187.171 119.166 187.453 118.86 187.657 118.476C187.861 118.08 187.963 117.63 187.963 117.126C187.963 116.67 187.861 116.268 187.657 115.92C187.453 115.56 187.171 115.278 186.811 115.074C186.463 114.87 186.073 114.768 185.641 114.768H181.303V119.736ZM193.219 126V113.4H198.943C199.687 113.4 200.359 113.568 200.959 113.904C201.559 114.24 202.033 114.702 202.381 115.29C202.729 115.866 202.903 116.52 202.903 117.252C202.903 117.972 202.723 118.62 202.363 119.196C202.015 119.772 201.535 120.228 200.923 120.564C200.311 120.9 199.633 121.068 198.889 121.068H194.623V126H193.219ZM201.805 126L198.205 120.456L199.591 120.006L203.515 126H201.805ZM194.623 119.7H198.889C199.393 119.7 199.831 119.598 200.203 119.394C200.587 119.178 200.887 118.884 201.103 118.512C201.319 118.14 201.427 117.72 201.427 117.252C201.427 116.784 201.307 116.364 201.067 115.992C200.839 115.608 200.515 115.308 200.095 115.092C199.687 114.876 199.213 114.768 198.673 114.768H194.623V119.7ZM219.075 121.338C218.847 121.338 218.577 121.302 218.265 121.23C217.965 121.146 217.659 121.05 217.347 120.942C217.047 120.834 216.783 120.738 216.555 120.654C216.363 120.594 216.153 120.528 215.925 120.456C215.697 120.372 215.469 120.3 215.241 120.24C215.013 120.168 214.815 120.132 214.647 120.132C214.359 120.132 214.125 120.234 213.945 120.438C213.765 120.63 213.675 120.894 213.675 121.23L212.523 121.248C212.523 120.528 212.709 119.958 213.081 119.538C213.453 119.118 213.981 118.908 214.665 118.908C214.833 118.908 215.025 118.932 215.241 118.98C215.469 119.028 215.697 119.088 215.925 119.16C216.165 119.232 216.393 119.304 216.609 119.376C216.837 119.436 217.035 119.502 217.203 119.574C217.395 119.646 217.605 119.724 217.833 119.808C218.073 119.892 218.307 119.964 218.535 120.024C218.763 120.084 218.967 120.114 219.147 120.114C219.447 120.114 219.675 120.018 219.831 119.826C219.987 119.622 220.065 119.364 220.065 119.052H221.217C221.217 119.484 221.133 119.874 220.965 120.222C220.809 120.57 220.569 120.846 220.245 121.05C219.933 121.242 219.543 121.338 219.075 121.338ZM228.5 126.054C227.624 126.054 226.838 125.886 226.142 125.55C225.446 125.214 224.894 124.764 224.486 124.2C224.09 123.636 223.892 123.012 223.892 122.328C223.892 121.92 223.958 121.548 224.09 121.212C224.222 120.876 224.408 120.576 224.648 120.312C224.9 120.048 225.194 119.808 225.53 119.592C225.866 119.376 226.244 119.19 226.664 119.034L226.538 119.502C226.226 119.418 225.938 119.292 225.674 119.124C225.41 118.944 225.182 118.734 224.99 118.494C224.798 118.254 224.648 117.984 224.54 117.684C224.432 117.384 224.378 117.066 224.378 116.73C224.378 116.118 224.558 115.56 224.918 115.056C225.29 114.552 225.782 114.15 226.394 113.85C227.018 113.55 227.72 113.4 228.5 113.4C229.256 113.4 229.946 113.55 230.57 113.85C231.194 114.138 231.686 114.54 232.046 115.056C232.406 115.56 232.586 116.118 232.586 116.73C232.586 117.078 232.532 117.402 232.424 117.702C232.316 118.002 232.166 118.272 231.974 118.512C231.782 118.752 231.554 118.956 231.29 119.124C231.026 119.28 230.744 119.406 230.444 119.502L230.372 119.106C230.78 119.238 231.146 119.418 231.47 119.646C231.806 119.862 232.094 120.114 232.334 120.402C232.586 120.678 232.778 120.984 232.91 121.32C233.042 121.644 233.108 121.98 233.108 122.328C233.108 123.024 232.904 123.654 232.496 124.218C232.1 124.77 231.554 125.214 230.858 125.55C230.162 125.886 229.376 126.054 228.5 126.054ZM228.5 124.722C229.112 124.722 229.652 124.614 230.12 124.398C230.6 124.182 230.984 123.894 231.272 123.534C231.56 123.174 231.704 122.766 231.704 122.31C231.704 121.854 231.56 121.452 231.272 121.104C230.984 120.744 230.6 120.468 230.12 120.276C229.64 120.084 229.1 119.988 228.5 119.988C227.9 119.988 227.354 120.084 226.862 120.276C226.37 120.468 225.98 120.744 225.692 121.104C225.416 121.452 225.278 121.854 225.278 122.31C225.278 122.754 225.416 123.162 225.692 123.534C225.98 123.894 226.364 124.182 226.844 124.398C227.336 124.614 227.888 124.722 228.5 124.722ZM228.5 118.8C229.016 118.8 229.472 118.71 229.868 118.53C230.276 118.35 230.594 118.11 230.822 117.81C231.062 117.498 231.182 117.144 231.182 116.748C231.182 116.364 231.062 116.022 230.822 115.722C230.594 115.422 230.276 115.182 229.868 115.002C229.46 114.822 229.004 114.732 228.5 114.732C227.972 114.732 227.504 114.822 227.096 115.002C226.7 115.182 226.382 115.422 226.142 115.722C225.902 116.022 225.782 116.358 225.782 116.73C225.782 117.138 225.902 117.498 226.142 117.81C226.394 118.122 226.724 118.368 227.132 118.548C227.54 118.716 227.996 118.8 228.5 118.8ZM237.983 126L246.497 113.4H247.955L239.387 126H237.983ZM238.487 120.51C237.899 120.51 237.377 120.354 236.921 120.042C236.477 119.718 236.129 119.286 235.877 118.746C235.637 118.194 235.517 117.576 235.517 116.892C235.517 116.196 235.637 115.572 235.877 115.02C236.129 114.468 236.483 114.036 236.939 113.724C237.395 113.4 237.917 113.238 238.505 113.238C239.093 113.238 239.609 113.4 240.053 113.724C240.509 114.036 240.857 114.468 241.097 115.02C241.349 115.572 241.475 116.196 241.475 116.892C241.475 117.564 241.343 118.176 241.079 118.728C240.827 119.268 240.473 119.7 240.017 120.024C239.573 120.348 239.063 120.51 238.487 120.51ZM238.505 119.358C238.853 119.358 239.153 119.256 239.405 119.052C239.669 118.836 239.861 118.548 239.981 118.188C240.113 117.816 240.179 117.378 240.179 116.874C240.179 116.382 240.113 115.95 239.981 115.578C239.861 115.194 239.669 114.9 239.405 114.696C239.153 114.492 238.847 114.39 238.487 114.39C238.127 114.39 237.815 114.498 237.551 114.714C237.299 114.918 237.107 115.212 236.975 115.596C236.843 115.968 236.777 116.4 236.777 116.892C236.777 117.396 236.843 117.834 236.975 118.206C237.119 118.578 237.317 118.866 237.569 119.07C237.821 119.262 238.133 119.358 238.505 119.358ZM247.613 126.216C247.013 126.216 246.491 126.06 246.047 125.748C245.603 125.424 245.255 124.992 245.003 124.452C244.751 123.9 244.625 123.282 244.625 122.598C244.625 121.902 244.745 121.278 244.985 120.726C245.237 120.174 245.591 119.742 246.047 119.43C246.503 119.106 247.025 118.944 247.613 118.944C248.201 118.944 248.717 119.106 249.161 119.43C249.617 119.742 249.965 120.174 250.205 120.726C250.457 121.278 250.583 121.902 250.583 122.598C250.583 123.27 250.451 123.882 250.187 124.434C249.935 124.974 249.587 125.406 249.143 125.73C248.699 126.054 248.189 126.216 247.613 126.216ZM247.613 125.064C247.973 125.064 248.279 124.962 248.531 124.758C248.795 124.542 248.987 124.254 249.107 123.894C249.239 123.522 249.305 123.084 249.305 122.58C249.305 122.088 249.239 121.656 249.107 121.284C248.975 120.912 248.777 120.624 248.513 120.42C248.261 120.204 247.961 120.096 247.613 120.096C247.253 120.096 246.941 120.204 246.677 120.42C246.425 120.624 246.233 120.912 246.101 121.284C245.969 121.656 245.903 122.094 245.903 122.598C245.903 123.102 245.969 123.54 246.101 123.912C246.245 124.272 246.443 124.554 246.695 124.758C246.947 124.962 247.253 125.064 247.613 125.064Z" fill="black"/>
<path d="M521.433 85.5C522.752 84.0396 523.488 82.1401 523.5 80.1667C523.5 78.0449 522.662 76.0101 521.172 74.5098C519.681 73.0095 517.658 72.1667 515.55 72.1667H501.823C502.246 70.9618 502.377 69.6724 502.203 68.4065C502.029 67.1405 501.557 65.9348 500.825 64.8904C500.094 63.8459 499.124 62.993 497.997 62.4031C496.871 61.8133 495.62 61.5036 494.35 61.5H478.45C476.342 61.5 474.319 62.3429 472.829 63.8431C471.338 65.3434 470.5 67.3783 470.5 69.5C470.512 71.4735 471.248 73.373 472.567 74.8333C471.263 76.3001 470.543 78.1988 470.543 80.1667C470.543 82.1345 471.263 84.0333 472.567 85.5C471.263 86.9667 470.543 88.8655 470.543 90.8333C470.543 92.8012 471.263 94.6999 472.567 96.1667C471.248 97.627 470.512 99.5265 470.5 101.5C470.5 103.622 471.338 105.657 472.829 107.157C474.319 108.657 476.342 109.5 478.45 109.5H515.55C517.081 109.492 518.577 109.039 519.859 108.196C521.14 107.352 522.152 106.155 522.774 104.747C523.395 103.338 523.599 101.78 523.361 100.258C523.123 98.7356 522.454 97.315 521.433 96.1667C522.737 94.6999 523.457 92.8012 523.457 90.8333C523.457 88.8655 522.737 86.9667 521.433 85.5ZM494.35 104.167H478.45C477.747 104.167 477.073 103.886 476.576 103.386C476.079 102.886 475.8 102.207 475.8 101.5C475.8 100.793 476.079 100.114 476.576 99.6144C477.073 99.1143 477.747 98.8333 478.45 98.8333H494.35C495.053 98.8333 495.727 99.1143 496.224 99.6144C496.721 100.114 497 100.793 497 101.5C497 102.207 496.721 102.886 496.224 103.386C495.727 103.886 495.053 104.167 494.35 104.167ZM494.35 93.5H478.45C477.747 93.5 477.073 93.219 476.576 92.719C476.079 92.2189 475.8 91.5406 475.8 90.8333C475.8 90.1261 476.079 89.4478 476.576 88.9477C477.073 88.4476 477.747 88.1667 478.45 88.1667H494.35C495.053 88.1667 495.727 88.4476 496.224 88.9477C496.721 89.4478 497 90.1261 497 90.8333C497 91.5406 496.721 92.2189 496.224 92.719C495.727 93.219 495.053 93.5 494.35 93.5ZM494.35 82.8333H478.45C477.747 82.8333 477.073 82.5524 476.576 82.0523C476.079 81.5522 475.8 80.8739 475.8 80.1667C475.8 79.4594 476.079 78.7811 476.576 78.281C477.073 77.781 477.747 77.5 478.45 77.5H494.35C495.053 77.5 495.727 77.781 496.224 78.281C496.721 78.7811 497 79.4594 497 80.1667C497 80.8739 496.721 81.5522 496.224 82.0523C495.727 82.5524 495.053 82.8333 494.35 82.8333ZM494.35 72.1667H478.45C477.747 72.1667 477.073 71.8857 476.576 71.3856C476.079 70.8855 475.8 70.2072 475.8 69.5C475.8 68.7928 476.079 68.1145 476.576 67.6144C477.073 67.1143 477.747 66.8333 478.45 66.8333H494.35C495.053 66.8333 495.727 67.1143 496.224 67.6144C496.721 68.1145 497 68.7928 497 69.5C497 70.2072 496.721 70.8855 496.224 71.3856C495.727 71.8857 495.053 72.1667 494.35 72.1667ZM517.379 103.393C517.144 103.643 516.86 103.84 516.545 103.973C516.23 104.106 515.891 104.172 515.55 104.167H501.823C502.458 102.446 502.458 100.554 501.823 98.8333H515.55C516.253 98.8333 516.927 99.1143 517.424 99.6144C517.921 100.114 518.2 100.793 518.2 101.5C518.195 101.855 518.12 102.205 517.979 102.53C517.838 102.855 517.634 103.149 517.379 103.393ZM517.379 92.7267C517.144 92.976 516.86 93.1735 516.545 93.3066C516.23 93.4397 515.891 93.5056 515.55 93.5H501.823C502.458 91.7797 502.458 89.8869 501.823 88.1667H515.55C516.253 88.1667 516.927 88.4476 517.424 88.9477C517.921 89.4478 518.2 90.1261 518.2 90.8333C518.195 91.188 518.12 91.5382 517.979 91.8633C517.838 92.1884 517.634 92.4819 517.379 92.7267ZM517.379 82.06C517.144 82.3093 516.86 82.5068 516.545 82.6399C516.23 82.7731 515.891 82.8389 515.55 82.8333H501.823C502.458 81.1131 502.458 79.2203 501.823 77.5H515.55C516.253 77.5 516.927 77.781 517.424 78.281C517.921 78.7811 518.2 79.4594 518.2 80.1667C518.195 80.5214 518.12 80.8715 517.979 81.1966C517.838 81.5217 517.634 81.8153 517.379 82.06Z" fill="#FF5733"/>
</g>
<defs>
<filter id="filter0_dddd_2003_1926" x="0.157503" y="0.0845661" width="608.07" height="314.628" filterUnits="userSpaceOnUse" color-interpolation-filters="sRGB">
<feFlood flood-opacity="0" result="BackgroundImageFix"/>
<feColorMatrix in="SourceAlpha" type="matrix" values="0 0 0 0 0 0 0 0 0 0 0 0 0 0 0 0 0 0 127 0" result="hardAlpha"/>
<feOffset dx="1.31924" dy="6.59619"/>
<feGaussianBlur stdDeviation="7.25581"/>
<feColorMatrix type="matrix" values="0 0 0 0 0 0 0 0 0 0 0 0 0 0 0 0 0 0 0.08 0"/>
<feBlend mode="normal" in2="BackgroundImageFix" result="effect1_dropShadow_2003_1926"/>
<feColorMatrix in="SourceAlpha" type="matrix" values="0 0 0 0 0 0 0 0 0 0 0 0 0 0 0 0 0 0 127 0" result="hardAlpha"/>
<feOffset dx="2.63848" dy="26.3848"/>
<feGaussianBlur stdDeviation="13.852"/>
<feColorMatrix type="matrix" values="0 0 0 0 0 0 0 0 0 0 0 0 0 0 0 0 0 0 0.06 0"/>
<feBlend mode="normal" in2="effect1_dropShadow_2003_1926" result="effect2_dropShadow_2003_1926"/>
<feColorMatrix in="SourceAlpha" type="matrix" values="0 0 0 0 0 0 0 0 0 0 0 0 0 0 0 0 0 0 127 0" result="hardAlpha"/>
<feOffset dx="6.59619" dy="60.685"/>
<feGaussianBlur stdDeviation="18.4693"/>
<feColorMatrix type="matrix" values="0 0 0 0 0 0 0 0 0 0 0 0 0 0 0 0 0 0 0.04 0"/>
<feBlend mode="normal" in2="effect2_dropShadow_2003_1926" result="effect3_dropShadow_2003_1926"/>
<feColorMatrix in="SourceAlpha" type="matrix" values="0 0 0 0 0 0 0 0 0 0 0 0 0 0 0 0 0 0 127 0" result="hardAlpha"/>
<feOffset dx="13.1924" dy="108.178"/>
<feGaussianBlur stdDeviation="21.7674"/>
<feColorMatrix type="matrix" values="0 0 0 0 0 0 0 0 0 0 0 0 0 0 0 0 0 0 0.01 0"/>
<feBlend mode="normal" in2="effect3_dropShadow_2003_1926" result="effect4_dropShadow_2003_1926"/>
<feBlend mode="normal" in="SourceGraphic" in2="effect4_dropShadow_2003_1926" result="shape"/>
</filter>
<linearGradient id="paint0_linear_2003_1926" x1="75.4138" y1="-4.91667" x2="127.85" y2="240.296" gradientUnits="userSpaceOnUse">
<stop stop-color="white" stop-opacity="0"/>
<stop offset="1" stop-color="#AD7C00" stop-opacity="0.06"/>
</linearGradient>
</defs>
</svg>
