<svg width="622" height="223" viewBox="0 0 622 223" fill="none" xmlns="http://www.w3.org/2000/svg">
<g filter="url(#filter0_dddd_2003_1904)">
<mask id="path-1-inside-1_2003_1904" fill="white">
<path d="M-152 99H79V171H-152V99Z"/>
</mask>
<path d="M-152 99H79V171H-152V99Z" fill="white"/>
<path d="M-152 99H79V171H-152V99Z" fill="white"/>
<path d="M-152 99H79V171H-152V99Z" fill="url(#paint0_linear_2003_1904)" fill-opacity="0.32" style="mix-blend-mode:luminosity"/>
<path d="M-152 99V97H-154V99H-152ZM79 99H81V97H79V99ZM79 171V173H81V171H79ZM-152 171H-154V173H-152V171ZM-152 99V101H79V99V97H-152V99ZM79 99H77V171H79H81V99H79ZM79 171V169H-152V171V173H79V171ZM-152 171H-150V99H-152H-154V171H-152Z" fill="black" fill-opacity="0.16" mask="url(#path-1-inside-1_2003_1904)"/>
<path d="M-73.984 140C-74.1547 140 -74.288 139.952 -74.384 139.856C-74.48 139.76 -74.528 139.621 -74.528 139.44V129.28C-74.528 129.099 -74.48 128.96 -74.384 128.864C-74.288 128.768 -74.1547 128.72 -73.984 128.72H-70.224C-69.4453 128.72 -68.7893 128.837 -68.256 129.072C-67.7227 129.296 -67.312 129.627 -67.024 130.064C-66.736 130.501 -66.592 131.04 -66.592 131.68C-66.592 132.384 -66.8053 132.971 -67.232 133.44C-67.648 133.909 -68.2133 134.219 -68.928 134.368V134.144C-68.128 134.229 -67.4987 134.517 -67.04 135.008C-66.5707 135.488 -66.336 136.128 -66.336 136.928C-66.336 137.931 -66.656 138.693 -67.296 139.216C-67.936 139.739 -68.8427 140 -70.016 140H-73.984ZM-73.568 139.168H-70.096C-69.168 139.168 -68.4747 138.987 -68.016 138.624C-67.5573 138.251 -67.328 137.691 -67.328 136.944C-67.328 136.176 -67.5573 135.611 -68.016 135.248C-68.4747 134.885 -69.168 134.704 -70.096 134.704H-73.568V139.168ZM-73.568 133.872H-70.336C-69.44 133.872 -68.7573 133.691 -68.288 133.328C-67.8187 132.955 -67.584 132.416 -67.584 131.712C-67.584 131.008 -67.8187 130.475 -68.288 130.112C-68.7573 129.739 -69.44 129.552 -70.336 129.552H-73.568V133.872ZM-61.7456 140.128C-62.4603 140.128 -63.015 139.904 -63.4096 139.456C-63.7936 139.008 -63.9856 138.373 -63.9856 137.552V129.12C-63.9856 128.949 -63.943 128.827 -63.8576 128.752C-63.7723 128.667 -63.6496 128.624 -63.4896 128.624C-63.3403 128.624 -63.223 128.667 -63.1376 128.752C-63.0523 128.827 -63.0096 128.949 -63.0096 129.12V137.44C-63.0096 138.059 -62.887 138.523 -62.6416 138.832C-62.3963 139.131 -62.039 139.28 -61.5696 139.28C-61.463 139.28 -61.3723 139.275 -61.2976 139.264C-61.223 139.253 -61.1483 139.248 -61.0736 139.248C-60.9776 139.237 -60.9083 139.259 -60.8656 139.312C-60.8123 139.355 -60.7856 139.451 -60.7856 139.6C-60.7856 139.749 -60.823 139.861 -60.8976 139.936C-60.9723 140.011 -61.095 140.064 -61.2656 140.096C-61.3403 140.107 -61.4203 140.112 -61.5056 140.112C-61.5803 140.123 -61.6603 140.128 -61.7456 140.128ZM-56.4132 140.128C-57.1386 140.128 -57.7679 139.963 -58.3012 139.632C-58.8346 139.301 -59.2506 138.837 -59.5492 138.24C-59.8372 137.643 -59.9812 136.933 -59.9812 136.112C-59.9812 135.504 -59.9012 134.955 -59.7412 134.464C-59.5706 133.973 -59.3306 133.552 -59.0212 133.2C-58.7012 132.837 -58.3226 132.565 -57.8852 132.384C-57.4372 132.192 -56.9466 132.096 -56.4132 132.096C-55.6772 132.096 -55.0426 132.261 -54.5092 132.592C-53.9759 132.923 -53.5652 133.392 -53.2772 134C-52.9786 134.597 -52.8292 135.301 -52.8292 136.112C-52.8292 136.731 -52.9146 137.285 -53.0852 137.776C-53.2452 138.267 -53.4852 138.688 -53.8052 139.04C-54.1146 139.392 -54.4879 139.664 -54.9252 139.856C-55.3626 140.037 -55.8586 140.128 -56.4132 140.128ZM-56.4132 139.312C-55.8799 139.312 -55.4212 139.189 -55.0372 138.944C-54.6426 138.688 -54.3439 138.32 -54.1412 137.84C-53.9279 137.36 -53.8212 136.784 -53.8212 136.112C-53.8212 135.099 -54.0559 134.315 -54.5252 133.76C-54.9839 133.205 -55.6132 132.928 -56.4132 132.928C-56.9359 132.928 -57.3946 133.056 -57.7892 133.312C-58.1732 133.557 -58.4719 133.92 -58.6852 134.4C-58.8879 134.869 -58.9892 135.44 -58.9892 136.112C-58.9892 137.136 -58.7546 137.925 -58.2852 138.48C-57.8159 139.035 -57.1919 139.312 -56.4132 139.312ZM-47.5832 140.128C-48.3406 140.128 -48.9912 139.963 -49.5352 139.632C-50.0792 139.291 -50.5006 138.816 -50.7992 138.208C-51.0872 137.589 -51.2312 136.875 -51.2312 136.064C-51.2312 135.445 -51.1512 134.896 -50.9912 134.416C-50.8206 133.925 -50.5806 133.509 -50.2712 133.168C-49.9512 132.827 -49.5672 132.565 -49.1192 132.384C-48.6606 132.192 -48.1486 132.096 -47.5832 132.096C-47.1886 132.096 -46.7832 132.165 -46.3672 132.304C-45.9512 132.432 -45.5726 132.651 -45.2312 132.96C-45.1566 133.024 -45.1086 133.099 -45.0872 133.184C-45.0659 133.269 -45.0712 133.355 -45.1032 133.44C-45.1352 133.515 -45.1832 133.579 -45.2472 133.632C-45.3112 133.675 -45.3912 133.701 -45.4872 133.712C-45.5726 133.712 -45.6632 133.669 -45.7592 133.584C-46.0579 133.339 -46.3619 133.173 -46.6712 133.088C-46.9699 132.992 -47.2632 132.944 -47.5512 132.944C-47.9886 132.944 -48.3726 133.013 -48.7032 133.152C-49.0339 133.291 -49.3166 133.493 -49.5512 133.76C-49.7752 134.027 -49.9459 134.357 -50.0632 134.752C-50.1806 135.136 -50.2392 135.579 -50.2392 136.08C-50.2392 137.083 -50.0099 137.872 -49.5512 138.448C-49.0819 139.013 -48.4152 139.296 -47.5512 139.296C-47.2632 139.296 -46.9699 139.253 -46.6712 139.168C-46.3619 139.072 -46.0579 138.901 -45.7592 138.656C-45.6632 138.571 -45.5726 138.533 -45.4872 138.544C-45.3912 138.544 -45.3112 138.571 -45.2472 138.624C-45.1832 138.667 -45.1406 138.731 -45.1192 138.816C-45.0872 138.891 -45.0819 138.971 -45.1032 139.056C-45.1246 139.141 -45.1726 139.216 -45.2472 139.28C-45.5779 139.589 -45.9512 139.808 -46.3672 139.936C-46.7832 140.064 -47.1886 140.128 -47.5832 140.128ZM-42.9115 140.096C-43.0715 140.096 -43.1942 140.053 -43.2795 139.968C-43.3648 139.883 -43.4075 139.76 -43.4075 139.6V129.12C-43.4075 128.949 -43.3648 128.827 -43.2795 128.752C-43.1942 128.667 -43.0715 128.624 -42.9115 128.624C-42.7622 128.624 -42.6448 128.667 -42.5595 128.752C-42.4742 128.827 -42.4315 128.949 -42.4315 129.12V135.76H-42.3995L-38.8155 132.48C-38.6982 132.373 -38.5968 132.288 -38.5115 132.224C-38.4155 132.16 -38.2928 132.128 -38.1435 132.128C-38.0155 132.128 -37.9142 132.165 -37.8395 132.24C-37.7648 132.315 -37.7328 132.405 -37.7435 132.512C-37.7435 132.608 -37.7968 132.715 -37.9035 132.832L-41.7115 136.304V135.68L-37.5675 139.36C-37.4395 139.477 -37.3755 139.595 -37.3755 139.712C-37.3648 139.819 -37.3968 139.909 -37.4715 139.984C-37.5462 140.059 -37.6475 140.096 -37.7755 140.096C-37.9142 140.096 -38.0315 140.064 -38.1275 140C-38.2235 139.947 -38.3408 139.856 -38.4795 139.728L-42.3995 136.272H-42.4315V139.6C-42.4315 139.931 -42.5915 140.096 -42.9115 140.096ZM-31.0182 140.096C-31.1569 140.096 -31.2582 140.048 -31.3222 139.952C-31.3756 139.856 -31.3862 139.723 -31.3542 139.552L-30.8422 136.912L-30.4582 137.008H-31.9302C-32.0262 137.008 -32.1169 136.992 -32.2022 136.96C-32.2769 136.928 -32.3356 136.885 -32.3783 136.832C-32.4102 136.768 -32.4262 136.699 -32.4262 136.624C-32.4262 136.485 -32.3836 136.384 -32.2982 136.32C-32.2129 136.256 -32.0902 136.224 -31.9302 136.224H-30.3302L-30.7302 136.336L-29.9302 132.224L-29.6102 132.368H-31.6102C-31.7169 132.368 -31.8129 132.352 -31.8982 132.32C-31.9729 132.288 -32.0316 132.245 -32.0742 132.192C-32.1062 132.128 -32.1222 132.053 -32.1222 131.968C-32.1222 131.84 -32.0796 131.744 -31.9942 131.68C-31.8982 131.616 -31.7703 131.584 -31.6102 131.584H-29.4662L-29.8502 131.68L-29.3382 129.072C-29.3062 128.912 -29.2476 128.8 -29.1622 128.736C-29.0662 128.661 -28.9542 128.624 -28.8262 128.624C-28.6982 128.624 -28.6076 128.672 -28.5542 128.768C-28.5009 128.853 -28.4902 128.987 -28.5222 129.168L-28.9702 131.584H-26.1862L-25.7222 129.072C-25.6902 128.912 -25.6316 128.8 -25.5462 128.736C-25.4502 128.661 -25.3329 128.624 -25.1942 128.624C-25.0662 128.624 -24.9756 128.672 -24.9222 128.768C-24.8689 128.853 -24.8582 128.987 -24.8902 129.168L-25.3702 131.68L-25.6902 131.584H-24.2822C-24.1756 131.584 -24.0849 131.6 -24.0102 131.632C-23.9356 131.664 -23.8822 131.707 -23.8502 131.76C-23.8076 131.813 -23.7862 131.883 -23.7862 131.968C-23.7862 132.096 -23.8289 132.197 -23.9142 132.272C-23.9996 132.336 -24.1222 132.368 -24.2822 132.368H-25.8502L-25.4662 132.224L-26.2662 136.352L-26.6022 136.224H-24.6022C-24.4849 136.224 -24.3889 136.24 -24.3142 136.272C-24.2396 136.304 -24.1862 136.347 -24.1542 136.4C-24.1116 136.453 -24.0903 136.528 -24.0903 136.624C-24.0903 136.752 -24.1329 136.848 -24.2182 136.912C-24.3036 136.976 -24.4316 137.008 -24.6022 137.008H-26.7462L-26.3622 136.912L-26.9062 139.648C-26.9382 139.808 -26.9969 139.925 -27.0822 140C-27.1676 140.064 -27.2796 140.096 -27.4182 140.096C-27.5462 140.096 -27.6422 140.053 -27.7062 139.968C-27.7596 139.872 -27.7702 139.733 -27.7382 139.552L-27.2582 137.008H-30.0262L-30.5222 139.648C-30.5542 139.808 -30.6129 139.925 -30.6982 140C-30.7729 140.064 -30.8796 140.096 -31.0182 140.096ZM-29.8822 136.224H-27.0982L-26.3462 132.368H-29.1302L-29.8822 136.224ZM-18.6085 140.128C-19.2485 140.128 -19.8778 140.032 -20.4965 139.84C-21.1152 139.648 -21.6538 139.36 -22.1125 138.976C-22.2192 138.901 -22.2885 138.816 -22.3205 138.72C-22.3418 138.624 -22.3418 138.533 -22.3205 138.448C-22.2992 138.363 -22.2565 138.288 -22.1925 138.224C-22.1285 138.16 -22.0485 138.128 -21.9525 138.128C-21.8565 138.117 -21.7498 138.155 -21.6325 138.24C-21.1525 138.581 -20.6672 138.832 -20.1765 138.992C-19.6752 139.152 -19.1525 139.232 -18.6085 139.232C-18.0325 139.232 -17.5472 139.147 -17.1525 138.976C-16.7578 138.795 -16.4592 138.533 -16.2565 138.192C-16.0432 137.851 -15.9365 137.429 -15.9365 136.928C-15.9365 136.203 -16.1765 135.653 -16.6565 135.28C-17.1258 134.896 -17.8085 134.704 -18.7045 134.704H-19.9045C-20.0538 134.704 -20.1712 134.667 -20.2565 134.592C-20.3418 134.507 -20.3845 134.4 -20.3845 134.272C-20.3845 134.133 -20.3418 134.027 -20.2565 133.952C-20.1712 133.877 -20.0538 133.84 -19.9045 133.84H-18.7845C-18.2618 133.84 -17.8138 133.744 -17.4405 133.552C-17.0672 133.36 -16.7792 133.093 -16.5765 132.752C-16.3632 132.4 -16.2565 131.979 -16.2565 131.488C-16.2565 130.848 -16.4645 130.357 -16.8805 130.016C-17.2858 129.664 -17.8778 129.488 -18.6565 129.488C-19.1792 129.488 -19.6698 129.573 -20.1285 129.744C-20.5872 129.904 -21.0245 130.165 -21.4405 130.528C-21.5365 130.613 -21.6325 130.661 -21.7285 130.672C-21.8245 130.672 -21.9098 130.645 -21.9845 130.592C-22.0485 130.539 -22.0965 130.469 -22.1285 130.384C-22.1605 130.288 -22.1605 130.192 -22.1285 130.096C-22.0965 129.989 -22.0272 129.893 -21.9205 129.808C-21.5045 129.413 -21.0085 129.115 -20.4325 128.912C-19.8458 128.699 -19.2432 128.592 -18.6245 128.592C-17.9205 128.592 -17.3178 128.704 -16.8165 128.928C-16.3152 129.152 -15.9312 129.477 -15.6645 129.904C-15.3872 130.331 -15.2485 130.843 -15.2485 131.44C-15.2485 131.909 -15.3392 132.336 -15.5205 132.72C-15.6912 133.104 -15.9365 133.429 -16.2565 133.696C-16.5765 133.963 -16.9605 134.155 -17.4085 134.272V134.096C-16.6298 134.235 -16.0272 134.56 -15.6005 135.072C-15.1632 135.573 -14.9445 136.208 -14.9445 136.976C-14.9445 137.616 -15.0938 138.176 -15.3925 138.656C-15.6805 139.125 -16.0965 139.488 -16.6405 139.744C-17.1845 140 -17.8405 140.128 -18.6085 140.128ZM-6.98275 140.096C-7.14275 140.096 -7.26542 140.053 -7.35075 139.968C-7.43608 139.883 -7.47875 139.76 -7.47875 139.6V137.456H-12.3587C-12.5187 137.456 -12.6467 137.419 -12.7427 137.344C-12.8281 137.259 -12.8707 137.141 -12.8707 136.992C-12.8707 136.907 -12.8547 136.821 -12.8227 136.736C-12.7801 136.64 -12.7161 136.528 -12.6307 136.4L-7.52675 128.944C-7.45208 128.837 -7.37208 128.757 -7.28675 128.704C-7.19075 128.651 -7.08408 128.624 -6.96675 128.624C-6.82808 128.624 -6.71608 128.667 -6.63075 128.752C-6.53475 128.827 -6.48675 128.949 -6.48675 129.12V136.592H-5.14275C-4.98275 136.592 -4.86542 136.629 -4.79075 136.704C-4.70542 136.779 -4.66275 136.885 -4.66275 137.024C-4.66275 137.163 -4.70542 137.269 -4.79075 137.344C-4.86542 137.419 -4.98275 137.456 -5.14275 137.456H-6.48675V139.6C-6.48675 139.76 -6.52942 139.883 -6.61475 139.968C-6.70008 140.053 -6.82275 140.096 -6.98275 140.096ZM-7.47875 136.592V129.84H-7.12675L-11.9427 136.864V136.592H-7.47875ZM-2.093 140C-2.285 140 -2.429 139.957 -2.525 139.872C-2.61033 139.776 -2.653 139.653 -2.653 139.504C-2.653 139.419 -2.63167 139.333 -2.589 139.248C-2.54633 139.163 -2.48767 139.083 -2.413 139.008L1.331 134.96C1.907 134.341 2.323 133.771 2.579 133.248C2.835 132.715 2.963 132.171 2.963 131.616C2.963 130.923 2.755 130.395 2.339 130.032C1.923 129.669 1.315 129.488 0.515 129.488C-0.0183331 129.488 -0.514333 129.579 -0.973 129.76C-1.421 129.931 -1.853 130.187 -2.269 130.528C-2.37567 130.613 -2.477 130.656 -2.573 130.656C-2.65833 130.656 -2.733 130.629 -2.797 130.576C-2.861 130.512 -2.909 130.437 -2.941 130.352C-2.96233 130.256 -2.96233 130.16 -2.941 130.064C-2.909 129.968 -2.85033 129.883 -2.765 129.808C-2.349 129.445 -1.84767 129.152 -1.261 128.928C-0.674333 128.704 -0.0663331 128.592 0.563 128.592C1.28833 128.592 1.90167 128.709 2.403 128.944C2.915 129.168 3.30433 129.504 3.571 129.952C3.83767 130.4 3.971 130.939 3.971 131.568C3.971 132.016 3.89633 132.459 3.747 132.896C3.59767 133.333 3.37367 133.776 3.075 134.224C2.787 134.672 2.41367 135.141 1.955 135.632L-1.645 139.44V139.136H4.067C4.21633 139.136 4.32833 139.173 4.403 139.248C4.48833 139.312 4.531 139.413 4.531 139.552C4.531 139.701 4.48833 139.813 4.403 139.888C4.32833 139.963 4.21633 140 4.067 140H-2.093ZM7.93275 140C7.79408 140 7.68208 139.963 7.59675 139.888C7.51142 139.803 7.46875 139.691 7.46875 139.552C7.46875 139.413 7.51142 139.312 7.59675 139.248C7.68208 139.173 7.79408 139.136 7.93275 139.136H10.1568V129.504H10.7168L8.39675 131.088C8.29008 131.163 8.18875 131.2 8.09275 131.2C7.99675 131.189 7.91675 131.152 7.85275 131.088C7.78875 131.024 7.74075 130.949 7.70875 130.864C7.68742 130.779 7.69275 130.688 7.72475 130.592C7.75675 130.496 7.82608 130.416 7.93275 130.352L10.1408 128.816C10.2474 128.752 10.3434 128.704 10.4288 128.672C10.5141 128.64 10.6101 128.624 10.7168 128.624C10.8341 128.624 10.9301 128.661 11.0048 128.736C11.0901 128.8 11.1328 128.912 11.1328 129.072V139.136H13.1968C13.3461 139.136 13.4581 139.173 13.5328 139.248C13.6181 139.312 13.6608 139.413 13.6608 139.552C13.6608 139.701 13.6181 139.813 13.5328 139.888C13.4581 139.963 13.3461 140 13.1968 140H7.93275ZM17.0945 140C16.9025 140 16.7585 139.957 16.6625 139.872C16.5772 139.776 16.5345 139.653 16.5345 139.504C16.5345 139.419 16.5558 139.333 16.5985 139.248C16.6412 139.163 16.6998 139.083 16.7745 139.008L20.5185 134.96C21.0945 134.341 21.5105 133.771 21.7665 133.248C22.0225 132.715 22.1505 132.171 22.1505 131.616C22.1505 130.923 21.9425 130.395 21.5265 130.032C21.1105 129.669 20.5025 129.488 19.7025 129.488C19.1692 129.488 18.6732 129.579 18.2145 129.76C17.7665 129.931 17.3345 130.187 16.9185 130.528C16.8118 130.613 16.7105 130.656 16.6145 130.656C16.5292 130.656 16.4545 130.629 16.3905 130.576C16.3265 130.512 16.2785 130.437 16.2465 130.352C16.2252 130.256 16.2252 130.16 16.2465 130.064C16.2785 129.968 16.3372 129.883 16.4225 129.808C16.8385 129.445 17.3398 129.152 17.9265 128.928C18.5132 128.704 19.1212 128.592 19.7505 128.592C20.4758 128.592 21.0892 128.709 21.5905 128.944C22.1025 129.168 22.4918 129.504 22.7585 129.952C23.0252 130.4 23.1585 130.939 23.1585 131.568C23.1585 132.016 23.0838 132.459 22.9345 132.896C22.7852 133.333 22.5612 133.776 22.2625 134.224C21.9745 134.672 21.6012 135.141 21.1425 135.632L17.5425 139.44V139.136H23.2545C23.4038 139.136 23.5158 139.173 23.5905 139.248C23.6758 139.312 23.7185 139.413 23.7185 139.552C23.7185 139.701 23.6758 139.813 23.5905 139.888C23.5158 139.963 23.4038 140 23.2545 140H17.0945ZM27.1203 140C26.9816 140 26.8696 139.963 26.7843 139.888C26.6989 139.803 26.6562 139.691 26.6562 139.552C26.6562 139.413 26.6989 139.312 26.7843 139.248C26.8696 139.173 26.9816 139.136 27.1203 139.136H29.3443V129.504H29.9043L27.5843 131.088C27.4776 131.163 27.3763 131.2 27.2803 131.2C27.1843 131.189 27.1043 131.152 27.0403 131.088C26.9763 131.024 26.9283 130.949 26.8963 130.864C26.8749 130.779 26.8803 130.688 26.9123 130.592C26.9443 130.496 27.0136 130.416 27.1203 130.352L29.3283 128.816C29.4349 128.752 29.5309 128.704 29.6163 128.672C29.7016 128.64 29.7976 128.624 29.9043 128.624C30.0216 128.624 30.1176 128.661 30.1923 128.736C30.2776 128.8 30.3203 128.912 30.3203 129.072V139.136H32.3843C32.5336 139.136 32.6456 139.173 32.7203 139.248C32.8056 139.312 32.8483 139.413 32.8483 139.552C32.8483 139.701 32.8056 139.813 32.7203 139.888C32.6456 139.963 32.5336 140 32.3843 140H27.1203Z" fill="black"/>
</g>
<path d="M97.6667 136C97.6667 138.946 100.054 141.333 103 141.333C105.946 141.333 108.333 138.946 108.333 136C108.333 133.054 105.946 130.667 103 130.667C100.054 130.667 97.6667 133.054 97.6667 136ZM81 136V137H103V136V135H81V136Z" fill="#B7B4B4"/>
<g filter="url(#filter1_dddd_2003_1904)">
<mask id="path-5-inside-2_2003_1904" fill="white">
<path d="M110 99H341V171H110V99Z"/>
</mask>
<path d="M110 99H341V171H110V99Z" fill="white"/>
<path d="M110 99H341V171H110V99Z" fill="white"/>
<path d="M110 99H341V171H110V99Z" fill="url(#paint1_linear_2003_1904)" fill-opacity="0.32" style="mix-blend-mode:luminosity"/>
<path d="M110 99V97H108V99H110ZM341 99H343V97H341V99ZM341 171V173H343V171H341ZM110 171H108V173H110V171ZM110 99V101H341V99V97H110V99ZM341 99H339V171H341H343V99H341ZM341 171V169H110V171V173H341V171ZM110 171H112V99H110H108V171H110Z" fill="black" fill-opacity="0.16" mask="url(#path-5-inside-2_2003_1904)"/>
<path d="M188.016 140C187.845 140 187.712 139.952 187.616 139.856C187.52 139.76 187.472 139.621 187.472 139.44V129.28C187.472 129.099 187.52 128.96 187.616 128.864C187.712 128.768 187.845 128.72 188.016 128.72H191.776C192.555 128.72 193.211 128.837 193.744 129.072C194.277 129.296 194.688 129.627 194.976 130.064C195.264 130.501 195.408 131.04 195.408 131.68C195.408 132.384 195.195 132.971 194.768 133.44C194.352 133.909 193.787 134.219 193.072 134.368V134.144C193.872 134.229 194.501 134.517 194.96 135.008C195.429 135.488 195.664 136.128 195.664 136.928C195.664 137.931 195.344 138.693 194.704 139.216C194.064 139.739 193.157 140 191.984 140H188.016ZM188.432 139.168H191.904C192.832 139.168 193.525 138.987 193.984 138.624C194.443 138.251 194.672 137.691 194.672 136.944C194.672 136.176 194.443 135.611 193.984 135.248C193.525 134.885 192.832 134.704 191.904 134.704H188.432V139.168ZM188.432 133.872H191.664C192.56 133.872 193.243 133.691 193.712 133.328C194.181 132.955 194.416 132.416 194.416 131.712C194.416 131.008 194.181 130.475 193.712 130.112C193.243 129.739 192.56 129.552 191.664 129.552H188.432V133.872ZM200.254 140.128C199.54 140.128 198.985 139.904 198.59 139.456C198.206 139.008 198.014 138.373 198.014 137.552V129.12C198.014 128.949 198.057 128.827 198.142 128.752C198.228 128.667 198.35 128.624 198.51 128.624C198.66 128.624 198.777 128.667 198.862 128.752C198.948 128.827 198.99 128.949 198.99 129.12V137.44C198.99 138.059 199.113 138.523 199.358 138.832C199.604 139.131 199.961 139.28 200.43 139.28C200.537 139.28 200.628 139.275 200.702 139.264C200.777 139.253 200.852 139.248 200.926 139.248C201.022 139.237 201.092 139.259 201.134 139.312C201.188 139.355 201.214 139.451 201.214 139.6C201.214 139.749 201.177 139.861 201.102 139.936C201.028 140.011 200.905 140.064 200.734 140.096C200.66 140.107 200.58 140.112 200.494 140.112C200.42 140.123 200.34 140.128 200.254 140.128ZM205.587 140.128C204.861 140.128 204.232 139.963 203.699 139.632C203.165 139.301 202.749 138.837 202.451 138.24C202.163 137.643 202.019 136.933 202.019 136.112C202.019 135.504 202.099 134.955 202.259 134.464C202.429 133.973 202.669 133.552 202.979 133.2C203.299 132.837 203.677 132.565 204.115 132.384C204.563 132.192 205.053 132.096 205.587 132.096C206.323 132.096 206.957 132.261 207.491 132.592C208.024 132.923 208.435 133.392 208.723 134C209.021 134.597 209.171 135.301 209.171 136.112C209.171 136.731 209.085 137.285 208.915 137.776C208.755 138.267 208.515 138.688 208.195 139.04C207.885 139.392 207.512 139.664 207.075 139.856C206.637 140.037 206.141 140.128 205.587 140.128ZM205.587 139.312C206.12 139.312 206.579 139.189 206.963 138.944C207.357 138.688 207.656 138.32 207.859 137.84C208.072 137.36 208.179 136.784 208.179 136.112C208.179 135.099 207.944 134.315 207.475 133.76C207.016 133.205 206.387 132.928 205.587 132.928C205.064 132.928 204.605 133.056 204.211 133.312C203.827 133.557 203.528 133.92 203.315 134.4C203.112 134.869 203.011 135.44 203.011 136.112C203.011 137.136 203.245 137.925 203.715 138.48C204.184 139.035 204.808 139.312 205.587 139.312ZM214.417 140.128C213.659 140.128 213.009 139.963 212.465 139.632C211.921 139.291 211.499 138.816 211.201 138.208C210.913 137.589 210.769 136.875 210.769 136.064C210.769 135.445 210.849 134.896 211.009 134.416C211.179 133.925 211.419 133.509 211.729 133.168C212.049 132.827 212.433 132.565 212.881 132.384C213.339 132.192 213.851 132.096 214.417 132.096C214.811 132.096 215.217 132.165 215.633 132.304C216.049 132.432 216.427 132.651 216.769 132.96C216.843 133.024 216.891 133.099 216.913 133.184C216.934 133.269 216.929 133.355 216.897 133.44C216.865 133.515 216.817 133.579 216.753 133.632C216.689 133.675 216.609 133.701 216.513 133.712C216.427 133.712 216.337 133.669 216.241 133.584C215.942 133.339 215.638 133.173 215.329 133.088C215.03 132.992 214.737 132.944 214.449 132.944C214.011 132.944 213.627 133.013 213.297 133.152C212.966 133.291 212.683 133.493 212.449 133.76C212.225 134.027 212.054 134.357 211.937 134.752C211.819 135.136 211.761 135.579 211.761 136.08C211.761 137.083 211.99 137.872 212.449 138.448C212.918 139.013 213.585 139.296 214.449 139.296C214.737 139.296 215.03 139.253 215.329 139.168C215.638 139.072 215.942 138.901 216.241 138.656C216.337 138.571 216.427 138.533 216.513 138.544C216.609 138.544 216.689 138.571 216.753 138.624C216.817 138.667 216.859 138.731 216.881 138.816C216.913 138.891 216.918 138.971 216.897 139.056C216.875 139.141 216.827 139.216 216.753 139.28C216.422 139.589 216.049 139.808 215.633 139.936C215.217 140.064 214.811 140.128 214.417 140.128ZM219.089 140.096C218.929 140.096 218.806 140.053 218.721 139.968C218.635 139.883 218.593 139.76 218.593 139.6V129.12C218.593 128.949 218.635 128.827 218.721 128.752C218.806 128.667 218.929 128.624 219.089 128.624C219.238 128.624 219.355 128.667 219.441 128.752C219.526 128.827 219.569 128.949 219.569 129.12V135.76H219.601L223.185 132.48C223.302 132.373 223.403 132.288 223.489 132.224C223.585 132.16 223.707 132.128 223.857 132.128C223.985 132.128 224.086 132.165 224.161 132.24C224.235 132.315 224.267 132.405 224.257 132.512C224.257 132.608 224.203 132.715 224.097 132.832L220.289 136.304V135.68L224.433 139.36C224.561 139.477 224.625 139.595 224.625 139.712C224.635 139.819 224.603 139.909 224.529 139.984C224.454 140.059 224.353 140.096 224.225 140.096C224.086 140.096 223.969 140.064 223.873 140C223.777 139.947 223.659 139.856 223.521 139.728L219.601 136.272H219.569V139.6C219.569 139.931 219.409 140.096 219.089 140.096ZM230.982 140.096C230.843 140.096 230.742 140.048 230.678 139.952C230.624 139.856 230.614 139.723 230.646 139.552L231.158 136.912L231.542 137.008H230.07C229.974 137.008 229.883 136.992 229.798 136.96C229.723 136.928 229.664 136.885 229.622 136.832C229.59 136.768 229.574 136.699 229.574 136.624C229.574 136.485 229.616 136.384 229.702 136.32C229.787 136.256 229.91 136.224 230.07 136.224H231.67L231.27 136.336L232.07 132.224L232.39 132.368H230.39C230.283 132.368 230.187 132.352 230.102 132.32C230.027 132.288 229.968 132.245 229.926 132.192C229.894 132.128 229.878 132.053 229.878 131.968C229.878 131.84 229.92 131.744 230.006 131.68C230.102 131.616 230.23 131.584 230.39 131.584H232.534L232.15 131.68L232.662 129.072C232.694 128.912 232.752 128.8 232.838 128.736C232.934 128.661 233.046 128.624 233.174 128.624C233.302 128.624 233.392 128.672 233.446 128.768C233.499 128.853 233.51 128.987 233.478 129.168L233.03 131.584H235.814L236.278 129.072C236.31 128.912 236.368 128.8 236.454 128.736C236.55 128.661 236.667 128.624 236.806 128.624C236.934 128.624 237.024 128.672 237.078 128.768C237.131 128.853 237.142 128.987 237.11 129.168L236.63 131.68L236.31 131.584H237.718C237.824 131.584 237.915 131.6 237.99 131.632C238.064 131.664 238.118 131.707 238.15 131.76C238.192 131.813 238.214 131.883 238.214 131.968C238.214 132.096 238.171 132.197 238.086 132.272C238 132.336 237.878 132.368 237.718 132.368H236.15L236.534 132.224L235.734 136.352L235.398 136.224H237.398C237.515 136.224 237.611 136.24 237.686 136.272C237.76 136.304 237.814 136.347 237.846 136.4C237.888 136.453 237.91 136.528 237.91 136.624C237.91 136.752 237.867 136.848 237.782 136.912C237.696 136.976 237.568 137.008 237.398 137.008H235.254L235.638 136.912L235.094 139.648C235.062 139.808 235.003 139.925 234.918 140C234.832 140.064 234.72 140.096 234.582 140.096C234.454 140.096 234.358 140.053 234.294 139.968C234.24 139.872 234.23 139.733 234.262 139.552L234.742 137.008H231.974L231.478 139.648C231.446 139.808 231.387 139.925 231.302 140C231.227 140.064 231.12 140.096 230.982 140.096ZM232.118 136.224H234.902L235.654 132.368H232.87L232.118 136.224ZM243.391 140.128C242.752 140.128 242.122 140.032 241.504 139.84C240.885 139.648 240.346 139.36 239.888 138.976C239.781 138.901 239.712 138.816 239.68 138.72C239.658 138.624 239.658 138.533 239.68 138.448C239.701 138.363 239.744 138.288 239.808 138.224C239.872 138.16 239.952 138.128 240.048 138.128C240.144 138.117 240.25 138.155 240.368 138.24C240.848 138.581 241.333 138.832 241.824 138.992C242.325 139.152 242.848 139.232 243.391 139.232C243.968 139.232 244.453 139.147 244.848 138.976C245.242 138.795 245.541 138.533 245.744 138.192C245.957 137.851 246.064 137.429 246.064 136.928C246.064 136.203 245.824 135.653 245.344 135.28C244.874 134.896 244.192 134.704 243.296 134.704H242.096C241.946 134.704 241.829 134.667 241.744 134.592C241.658 134.507 241.616 134.4 241.616 134.272C241.616 134.133 241.658 134.027 241.744 133.952C241.829 133.877 241.946 133.84 242.096 133.84H243.216C243.738 133.84 244.186 133.744 244.56 133.552C244.933 133.36 245.221 133.093 245.424 132.752C245.637 132.4 245.744 131.979 245.744 131.488C245.744 130.848 245.536 130.357 245.12 130.016C244.714 129.664 244.122 129.488 243.344 129.488C242.821 129.488 242.33 129.573 241.872 129.744C241.413 129.904 240.976 130.165 240.56 130.528C240.464 130.613 240.368 130.661 240.272 130.672C240.176 130.672 240.09 130.645 240.016 130.592C239.952 130.539 239.904 130.469 239.872 130.384C239.84 130.288 239.84 130.192 239.872 130.096C239.904 129.989 239.973 129.893 240.08 129.808C240.496 129.413 240.992 129.115 241.568 128.912C242.154 128.699 242.757 128.592 243.376 128.592C244.08 128.592 244.682 128.704 245.184 128.928C245.685 129.152 246.069 129.477 246.336 129.904C246.613 130.331 246.752 130.843 246.752 131.44C246.752 131.909 246.661 132.336 246.48 132.72C246.309 133.104 246.064 133.429 245.744 133.696C245.424 133.963 245.04 134.155 244.592 134.272V134.096C245.37 134.235 245.973 134.56 246.4 135.072C246.837 135.573 247.056 136.208 247.056 136.976C247.056 137.616 246.906 138.176 246.608 138.656C246.32 139.125 245.904 139.488 245.36 139.744C244.816 140 244.16 140.128 243.391 140.128ZM255.017 140.096C254.857 140.096 254.735 140.053 254.649 139.968C254.564 139.883 254.521 139.76 254.521 139.6V137.456H249.641C249.481 137.456 249.353 137.419 249.257 137.344C249.172 137.259 249.129 137.141 249.129 136.992C249.129 136.907 249.145 136.821 249.177 136.736C249.22 136.64 249.284 136.528 249.369 136.4L254.473 128.944C254.548 128.837 254.628 128.757 254.713 128.704C254.809 128.651 254.916 128.624 255.033 128.624C255.172 128.624 255.284 128.667 255.369 128.752C255.465 128.827 255.513 128.949 255.513 129.12V136.592H256.857C257.017 136.592 257.135 136.629 257.209 136.704C257.295 136.779 257.337 136.885 257.337 137.024C257.337 137.163 257.295 137.269 257.209 137.344C257.135 137.419 257.017 137.456 256.857 137.456H255.513V139.6C255.513 139.76 255.471 139.883 255.385 139.968C255.3 140.053 255.177 140.096 255.017 140.096ZM254.521 136.592V129.84H254.873L250.057 136.864V136.592H254.521ZM259.907 140C259.715 140 259.571 139.957 259.475 139.872C259.39 139.776 259.347 139.653 259.347 139.504C259.347 139.419 259.368 139.333 259.411 139.248C259.454 139.163 259.512 139.083 259.587 139.008L263.331 134.96C263.907 134.341 264.323 133.771 264.579 133.248C264.835 132.715 264.963 132.171 264.963 131.616C264.963 130.923 264.755 130.395 264.339 130.032C263.923 129.669 263.315 129.488 262.515 129.488C261.982 129.488 261.486 129.579 261.027 129.76C260.579 129.931 260.147 130.187 259.731 130.528C259.624 130.613 259.523 130.656 259.427 130.656C259.342 130.656 259.267 130.629 259.203 130.576C259.139 130.512 259.091 130.437 259.059 130.352C259.038 130.256 259.038 130.16 259.059 130.064C259.091 129.968 259.15 129.883 259.235 129.808C259.651 129.445 260.152 129.152 260.739 128.928C261.326 128.704 261.934 128.592 262.563 128.592C263.288 128.592 263.902 128.709 264.403 128.944C264.915 129.168 265.304 129.504 265.571 129.952C265.838 130.4 265.971 130.939 265.971 131.568C265.971 132.016 265.896 132.459 265.747 132.896C265.598 133.333 265.374 133.776 265.075 134.224C264.787 134.672 264.414 135.141 263.955 135.632L260.355 139.44V139.136H266.067C266.216 139.136 266.328 139.173 266.403 139.248C266.488 139.312 266.531 139.413 266.531 139.552C266.531 139.701 266.488 139.813 266.403 139.888C266.328 139.963 266.216 140 266.067 140H259.907ZM269.933 140C269.794 140 269.682 139.963 269.597 139.888C269.511 139.803 269.469 139.691 269.469 139.552C269.469 139.413 269.511 139.312 269.597 139.248C269.682 139.173 269.794 139.136 269.933 139.136H272.157V129.504H272.717L270.397 131.088C270.29 131.163 270.189 131.2 270.093 131.2C269.997 131.189 269.917 131.152 269.853 131.088C269.789 131.024 269.741 130.949 269.709 130.864C269.687 130.779 269.693 130.688 269.725 130.592C269.757 130.496 269.826 130.416 269.933 130.352L272.141 128.816C272.247 128.752 272.343 128.704 272.429 128.672C272.514 128.64 272.61 128.624 272.717 128.624C272.834 128.624 272.93 128.661 273.005 128.736C273.09 128.8 273.133 128.912 273.133 129.072V139.136H275.197C275.346 139.136 275.458 139.173 275.533 139.248C275.618 139.312 275.661 139.413 275.661 139.552C275.661 139.701 275.618 139.813 275.533 139.888C275.458 139.963 275.346 140 275.197 140H269.933ZM279.095 140C278.903 140 278.759 139.957 278.663 139.872C278.577 139.776 278.535 139.653 278.535 139.504C278.535 139.419 278.556 139.333 278.599 139.248C278.641 139.163 278.7 139.083 278.775 139.008L282.519 134.96C283.095 134.341 283.511 133.771 283.767 133.248C284.023 132.715 284.151 132.171 284.151 131.616C284.151 130.923 283.943 130.395 283.527 130.032C283.111 129.669 282.503 129.488 281.703 129.488C281.169 129.488 280.673 129.579 280.215 129.76C279.767 129.931 279.335 130.187 278.919 130.528C278.812 130.613 278.711 130.656 278.615 130.656C278.529 130.656 278.455 130.629 278.391 130.576C278.327 130.512 278.279 130.437 278.247 130.352C278.225 130.256 278.225 130.16 278.247 130.064C278.279 129.968 278.337 129.883 278.423 129.808C278.839 129.445 279.34 129.152 279.927 128.928C280.513 128.704 281.121 128.592 281.751 128.592C282.476 128.592 283.089 128.709 283.591 128.944C284.103 129.168 284.492 129.504 284.759 129.952C285.025 130.4 285.159 130.939 285.159 131.568C285.159 132.016 285.084 132.459 284.935 132.896C284.785 133.333 284.561 133.776 284.263 134.224C283.975 134.672 283.601 135.141 283.143 135.632L279.543 139.44V139.136H285.255C285.404 139.136 285.516 139.173 285.591 139.248C285.676 139.312 285.719 139.413 285.719 139.552C285.719 139.701 285.676 139.813 285.591 139.888C285.516 139.963 285.404 140 285.255 140H279.095ZM288.688 140C288.496 140 288.352 139.957 288.256 139.872C288.171 139.776 288.128 139.653 288.128 139.504C288.128 139.419 288.15 139.333 288.192 139.248C288.235 139.163 288.294 139.083 288.368 139.008L292.112 134.96C292.688 134.341 293.104 133.771 293.36 133.248C293.616 132.715 293.744 132.171 293.744 131.616C293.744 130.923 293.536 130.395 293.12 130.032C292.704 129.669 292.096 129.488 291.296 129.488C290.763 129.488 290.267 129.579 289.808 129.76C289.36 129.931 288.928 130.187 288.512 130.528C288.406 130.613 288.304 130.656 288.208 130.656C288.123 130.656 288.048 130.629 287.984 130.576C287.92 130.512 287.872 130.437 287.84 130.352C287.819 130.256 287.819 130.16 287.84 130.064C287.872 129.968 287.931 129.883 288.016 129.808C288.432 129.445 288.934 129.152 289.52 128.928C290.107 128.704 290.715 128.592 291.344 128.592C292.07 128.592 292.683 128.709 293.184 128.944C293.696 129.168 294.086 129.504 294.352 129.952C294.619 130.4 294.752 130.939 294.752 131.568C294.752 132.016 294.678 132.459 294.528 132.896C294.379 133.333 294.155 133.776 293.856 134.224C293.568 134.672 293.195 135.141 292.736 135.632L289.136 139.44V139.136H294.848C294.998 139.136 295.11 139.173 295.184 139.248C295.27 139.312 295.312 139.413 295.312 139.552C295.312 139.701 295.27 139.813 295.184 139.888C295.11 139.963 294.998 140 294.848 140H288.688Z" fill="black"/>
<path d="M146 148.333C153.364 148.333 159.333 142.364 159.333 135C159.333 127.636 153.364 121.667 146 121.667C138.636 121.667 132.667 127.636 132.667 135C132.667 142.364 138.636 148.333 146 148.333Z" stroke="#AD7C00" stroke-width="2" stroke-linecap="round" stroke-linejoin="round" stroke-dasharray="4 4"/>
</g>
<g filter="url(#filter2_dddd_2003_1904)">
<mask id="path-9-inside-3_2003_1904" fill="white">
<path d="M372 99H603V171H372V99Z"/>
</mask>
<path d="M372 99H603V171H372V99Z" fill="white"/>
<path d="M372 99H603V171H372V99Z" fill="white"/>
<path d="M372 99H603V171H372V99Z" fill="url(#paint2_linear_2003_1904)" fill-opacity="0.32" style="mix-blend-mode:luminosity"/>
<path d="M372 99V97H370V99H372ZM603 99H605V97H603V99ZM603 171V173H605V171H603ZM372 171H370V173H372V171ZM372 99V101H603V99V97H372V99ZM603 99H601V171H603H605V99H603ZM603 171V169H372V171V173H603V171ZM372 171H374V99H372H370V171H372Z" fill="black" fill-opacity="0.16" mask="url(#path-9-inside-3_2003_1904)"/>
<path d="M444.016 141C443.845 141 443.712 140.952 443.616 140.856C443.52 140.76 443.472 140.621 443.472 140.44V130.28C443.472 130.099 443.52 129.96 443.616 129.864C443.712 129.768 443.845 129.72 444.016 129.72H447.776C448.555 129.72 449.211 129.837 449.744 130.072C450.277 130.296 450.688 130.627 450.976 131.064C451.264 131.501 451.408 132.04 451.408 132.68C451.408 133.384 451.195 133.971 450.768 134.44C450.352 134.909 449.787 135.219 449.072 135.368V135.144C449.872 135.229 450.501 135.517 450.96 136.008C451.429 136.488 451.664 137.128 451.664 137.928C451.664 138.931 451.344 139.693 450.704 140.216C450.064 140.739 449.157 141 447.984 141H444.016ZM444.432 140.168H447.904C448.832 140.168 449.525 139.987 449.984 139.624C450.443 139.251 450.672 138.691 450.672 137.944C450.672 137.176 450.443 136.611 449.984 136.248C449.525 135.885 448.832 135.704 447.904 135.704H444.432V140.168ZM444.432 134.872H447.664C448.56 134.872 449.243 134.691 449.712 134.328C450.181 133.955 450.416 133.416 450.416 132.712C450.416 132.008 450.181 131.475 449.712 131.112C449.243 130.739 448.56 130.552 447.664 130.552H444.432V134.872ZM456.254 141.128C455.54 141.128 454.985 140.904 454.59 140.456C454.206 140.008 454.014 139.373 454.014 138.552V130.12C454.014 129.949 454.057 129.827 454.142 129.752C454.228 129.667 454.35 129.624 454.51 129.624C454.66 129.624 454.777 129.667 454.862 129.752C454.948 129.827 454.99 129.949 454.99 130.12V138.44C454.99 139.059 455.113 139.523 455.358 139.832C455.604 140.131 455.961 140.28 456.43 140.28C456.537 140.28 456.628 140.275 456.702 140.264C456.777 140.253 456.852 140.248 456.926 140.248C457.022 140.237 457.092 140.259 457.134 140.312C457.188 140.355 457.214 140.451 457.214 140.6C457.214 140.749 457.177 140.861 457.102 140.936C457.028 141.011 456.905 141.064 456.734 141.096C456.66 141.107 456.58 141.112 456.494 141.112C456.42 141.123 456.34 141.128 456.254 141.128ZM461.587 141.128C460.861 141.128 460.232 140.963 459.699 140.632C459.165 140.301 458.749 139.837 458.451 139.24C458.163 138.643 458.019 137.933 458.019 137.112C458.019 136.504 458.099 135.955 458.259 135.464C458.429 134.973 458.669 134.552 458.979 134.2C459.299 133.837 459.677 133.565 460.115 133.384C460.563 133.192 461.053 133.096 461.587 133.096C462.323 133.096 462.957 133.261 463.491 133.592C464.024 133.923 464.435 134.392 464.723 135C465.021 135.597 465.171 136.301 465.171 137.112C465.171 137.731 465.085 138.285 464.915 138.776C464.755 139.267 464.515 139.688 464.195 140.04C463.885 140.392 463.512 140.664 463.075 140.856C462.637 141.037 462.141 141.128 461.587 141.128ZM461.587 140.312C462.12 140.312 462.579 140.189 462.963 139.944C463.357 139.688 463.656 139.32 463.859 138.84C464.072 138.36 464.179 137.784 464.179 137.112C464.179 136.099 463.944 135.315 463.475 134.76C463.016 134.205 462.387 133.928 461.587 133.928C461.064 133.928 460.605 134.056 460.211 134.312C459.827 134.557 459.528 134.92 459.315 135.4C459.112 135.869 459.011 136.44 459.011 137.112C459.011 138.136 459.245 138.925 459.715 139.48C460.184 140.035 460.808 140.312 461.587 140.312ZM470.417 141.128C469.659 141.128 469.009 140.963 468.465 140.632C467.921 140.291 467.499 139.816 467.201 139.208C466.913 138.589 466.769 137.875 466.769 137.064C466.769 136.445 466.849 135.896 467.009 135.416C467.179 134.925 467.419 134.509 467.729 134.168C468.049 133.827 468.433 133.565 468.881 133.384C469.339 133.192 469.851 133.096 470.417 133.096C470.811 133.096 471.217 133.165 471.633 133.304C472.049 133.432 472.427 133.651 472.769 133.96C472.843 134.024 472.891 134.099 472.913 134.184C472.934 134.269 472.929 134.355 472.897 134.44C472.865 134.515 472.817 134.579 472.753 134.632C472.689 134.675 472.609 134.701 472.513 134.712C472.427 134.712 472.337 134.669 472.241 134.584C471.942 134.339 471.638 134.173 471.329 134.088C471.03 133.992 470.737 133.944 470.449 133.944C470.011 133.944 469.627 134.013 469.297 134.152C468.966 134.291 468.683 134.493 468.449 134.76C468.225 135.027 468.054 135.357 467.937 135.752C467.819 136.136 467.761 136.579 467.761 137.08C467.761 138.083 467.99 138.872 468.449 139.448C468.918 140.013 469.585 140.296 470.449 140.296C470.737 140.296 471.03 140.253 471.329 140.168C471.638 140.072 471.942 139.901 472.241 139.656C472.337 139.571 472.427 139.533 472.513 139.544C472.609 139.544 472.689 139.571 472.753 139.624C472.817 139.667 472.859 139.731 472.881 139.816C472.913 139.891 472.918 139.971 472.897 140.056C472.875 140.141 472.827 140.216 472.753 140.28C472.422 140.589 472.049 140.808 471.633 140.936C471.217 141.064 470.811 141.128 470.417 141.128ZM475.089 141.096C474.929 141.096 474.806 141.053 474.721 140.968C474.635 140.883 474.593 140.76 474.593 140.6V130.12C474.593 129.949 474.635 129.827 474.721 129.752C474.806 129.667 474.929 129.624 475.089 129.624C475.238 129.624 475.355 129.667 475.441 129.752C475.526 129.827 475.569 129.949 475.569 130.12V136.76H475.601L479.185 133.48C479.302 133.373 479.403 133.288 479.489 133.224C479.585 133.16 479.707 133.128 479.857 133.128C479.985 133.128 480.086 133.165 480.161 133.24C480.235 133.315 480.267 133.405 480.257 133.512C480.257 133.608 480.203 133.715 480.097 133.832L476.289 137.304V136.68L480.433 140.36C480.561 140.477 480.625 140.595 480.625 140.712C480.635 140.819 480.603 140.909 480.529 140.984C480.454 141.059 480.353 141.096 480.225 141.096C480.086 141.096 479.969 141.064 479.873 141C479.777 140.947 479.659 140.856 479.521 140.728L475.601 137.272H475.569V140.6C475.569 140.931 475.409 141.096 475.089 141.096ZM486.982 141.096C486.843 141.096 486.742 141.048 486.678 140.952C486.624 140.856 486.614 140.723 486.646 140.552L487.158 137.912L487.542 138.008H486.07C485.974 138.008 485.883 137.992 485.798 137.96C485.723 137.928 485.664 137.885 485.622 137.832C485.59 137.768 485.574 137.699 485.574 137.624C485.574 137.485 485.616 137.384 485.702 137.32C485.787 137.256 485.91 137.224 486.07 137.224H487.67L487.27 137.336L488.07 133.224L488.39 133.368H486.39C486.283 133.368 486.187 133.352 486.102 133.32C486.027 133.288 485.968 133.245 485.926 133.192C485.894 133.128 485.878 133.053 485.878 132.968C485.878 132.84 485.92 132.744 486.006 132.68C486.102 132.616 486.23 132.584 486.39 132.584H488.534L488.15 132.68L488.662 130.072C488.694 129.912 488.752 129.8 488.838 129.736C488.934 129.661 489.046 129.624 489.174 129.624C489.302 129.624 489.392 129.672 489.446 129.768C489.499 129.853 489.51 129.987 489.478 130.168L489.03 132.584H491.814L492.278 130.072C492.31 129.912 492.368 129.8 492.454 129.736C492.55 129.661 492.667 129.624 492.806 129.624C492.934 129.624 493.024 129.672 493.078 129.768C493.131 129.853 493.142 129.987 493.11 130.168L492.63 132.68L492.31 132.584H493.718C493.824 132.584 493.915 132.6 493.99 132.632C494.064 132.664 494.118 132.707 494.15 132.76C494.192 132.813 494.214 132.883 494.214 132.968C494.214 133.096 494.171 133.197 494.086 133.272C494 133.336 493.878 133.368 493.718 133.368H492.15L492.534 133.224L491.734 137.352L491.398 137.224H493.398C493.515 137.224 493.611 137.24 493.686 137.272C493.76 137.304 493.814 137.347 493.846 137.4C493.888 137.453 493.91 137.528 493.91 137.624C493.91 137.752 493.867 137.848 493.782 137.912C493.696 137.976 493.568 138.008 493.398 138.008H491.254L491.638 137.912L491.094 140.648C491.062 140.808 491.003 140.925 490.918 141C490.832 141.064 490.72 141.096 490.582 141.096C490.454 141.096 490.358 141.053 490.294 140.968C490.24 140.872 490.23 140.733 490.262 140.552L490.742 138.008H487.974L487.478 140.648C487.446 140.808 487.387 140.925 487.302 141C487.227 141.064 487.12 141.096 486.982 141.096ZM488.118 137.224H490.902L491.654 133.368H488.87L488.118 137.224ZM499.391 141.128C498.752 141.128 498.122 141.032 497.504 140.84C496.885 140.648 496.346 140.36 495.888 139.976C495.781 139.901 495.712 139.816 495.68 139.72C495.658 139.624 495.658 139.533 495.68 139.448C495.701 139.363 495.744 139.288 495.808 139.224C495.872 139.16 495.952 139.128 496.048 139.128C496.144 139.117 496.25 139.155 496.368 139.24C496.848 139.581 497.333 139.832 497.824 139.992C498.325 140.152 498.848 140.232 499.391 140.232C499.968 140.232 500.453 140.147 500.848 139.976C501.242 139.795 501.541 139.533 501.744 139.192C501.957 138.851 502.064 138.429 502.064 137.928C502.064 137.203 501.824 136.653 501.344 136.28C500.874 135.896 500.192 135.704 499.296 135.704H498.096C497.946 135.704 497.829 135.667 497.744 135.592C497.658 135.507 497.616 135.4 497.616 135.272C497.616 135.133 497.658 135.027 497.744 134.952C497.829 134.877 497.946 134.84 498.096 134.84H499.216C499.738 134.84 500.186 134.744 500.56 134.552C500.933 134.36 501.221 134.093 501.424 133.752C501.637 133.4 501.744 132.979 501.744 132.488C501.744 131.848 501.536 131.357 501.12 131.016C500.714 130.664 500.122 130.488 499.344 130.488C498.821 130.488 498.33 130.573 497.872 130.744C497.413 130.904 496.976 131.165 496.56 131.528C496.464 131.613 496.368 131.661 496.272 131.672C496.176 131.672 496.09 131.645 496.016 131.592C495.952 131.539 495.904 131.469 495.872 131.384C495.84 131.288 495.84 131.192 495.872 131.096C495.904 130.989 495.973 130.893 496.08 130.808C496.496 130.413 496.992 130.115 497.568 129.912C498.154 129.699 498.757 129.592 499.376 129.592C500.08 129.592 500.682 129.704 501.184 129.928C501.685 130.152 502.069 130.477 502.336 130.904C502.613 131.331 502.752 131.843 502.752 132.44C502.752 132.909 502.661 133.336 502.48 133.72C502.309 134.104 502.064 134.429 501.744 134.696C501.424 134.963 501.04 135.155 500.592 135.272V135.096C501.37 135.235 501.973 135.56 502.4 136.072C502.837 136.573 503.056 137.208 503.056 137.976C503.056 138.616 502.906 139.176 502.608 139.656C502.32 140.125 501.904 140.488 501.36 140.744C500.816 141 500.16 141.128 499.391 141.128ZM511.017 141.096C510.857 141.096 510.735 141.053 510.649 140.968C510.564 140.883 510.521 140.76 510.521 140.6V138.456H505.641C505.481 138.456 505.353 138.419 505.257 138.344C505.172 138.259 505.129 138.141 505.129 137.992C505.129 137.907 505.145 137.821 505.177 137.736C505.22 137.64 505.284 137.528 505.369 137.4L510.473 129.944C510.548 129.837 510.628 129.757 510.713 129.704C510.809 129.651 510.916 129.624 511.033 129.624C511.172 129.624 511.284 129.667 511.369 129.752C511.465 129.827 511.513 129.949 511.513 130.12V137.592H512.857C513.017 137.592 513.135 137.629 513.209 137.704C513.295 137.779 513.337 137.885 513.337 138.024C513.337 138.163 513.295 138.269 513.209 138.344C513.135 138.419 513.017 138.456 512.857 138.456H511.513V140.6C511.513 140.76 511.471 140.883 511.385 140.968C511.3 141.053 511.177 141.096 511.017 141.096ZM510.521 137.592V130.84H510.873L506.057 137.864V137.592H510.521ZM515.907 141C515.715 141 515.571 140.957 515.475 140.872C515.39 140.776 515.347 140.653 515.347 140.504C515.347 140.419 515.368 140.333 515.411 140.248C515.454 140.163 515.512 140.083 515.587 140.008L519.331 135.96C519.907 135.341 520.323 134.771 520.579 134.248C520.835 133.715 520.963 133.171 520.963 132.616C520.963 131.923 520.755 131.395 520.339 131.032C519.923 130.669 519.315 130.488 518.515 130.488C517.982 130.488 517.486 130.579 517.027 130.76C516.579 130.931 516.147 131.187 515.731 131.528C515.624 131.613 515.523 131.656 515.427 131.656C515.342 131.656 515.267 131.629 515.203 131.576C515.139 131.512 515.091 131.437 515.059 131.352C515.038 131.256 515.038 131.16 515.059 131.064C515.091 130.968 515.15 130.883 515.235 130.808C515.651 130.445 516.152 130.152 516.739 129.928C517.326 129.704 517.934 129.592 518.563 129.592C519.288 129.592 519.902 129.709 520.403 129.944C520.915 130.168 521.304 130.504 521.571 130.952C521.838 131.4 521.971 131.939 521.971 132.568C521.971 133.016 521.896 133.459 521.747 133.896C521.598 134.333 521.374 134.776 521.075 135.224C520.787 135.672 520.414 136.141 519.955 136.632L516.355 140.44V140.136H522.067C522.216 140.136 522.328 140.173 522.403 140.248C522.488 140.312 522.531 140.413 522.531 140.552C522.531 140.701 522.488 140.813 522.403 140.888C522.328 140.963 522.216 141 522.067 141H515.907ZM525.933 141C525.794 141 525.682 140.963 525.597 140.888C525.511 140.803 525.469 140.691 525.469 140.552C525.469 140.413 525.511 140.312 525.597 140.248C525.682 140.173 525.794 140.136 525.933 140.136H528.157V130.504H528.717L526.397 132.088C526.29 132.163 526.189 132.2 526.093 132.2C525.997 132.189 525.917 132.152 525.853 132.088C525.789 132.024 525.741 131.949 525.709 131.864C525.687 131.779 525.693 131.688 525.725 131.592C525.757 131.496 525.826 131.416 525.933 131.352L528.141 129.816C528.247 129.752 528.343 129.704 528.429 129.672C528.514 129.64 528.61 129.624 528.717 129.624C528.834 129.624 528.93 129.661 529.005 129.736C529.09 129.8 529.133 129.912 529.133 130.072V140.136H531.197C531.346 140.136 531.458 140.173 531.533 140.248C531.618 140.312 531.661 140.413 531.661 140.552C531.661 140.701 531.618 140.813 531.533 140.888C531.458 140.963 531.346 141 531.197 141H525.933ZM535.095 141C534.903 141 534.759 140.957 534.663 140.872C534.577 140.776 534.535 140.653 534.535 140.504C534.535 140.419 534.556 140.333 534.599 140.248C534.641 140.163 534.7 140.083 534.775 140.008L538.519 135.96C539.095 135.341 539.511 134.771 539.767 134.248C540.023 133.715 540.151 133.171 540.151 132.616C540.151 131.923 539.943 131.395 539.527 131.032C539.111 130.669 538.503 130.488 537.703 130.488C537.169 130.488 536.673 130.579 536.215 130.76C535.767 130.931 535.335 131.187 534.919 131.528C534.812 131.613 534.711 131.656 534.615 131.656C534.529 131.656 534.455 131.629 534.391 131.576C534.327 131.512 534.279 131.437 534.247 131.352C534.225 131.256 534.225 131.16 534.247 131.064C534.279 130.968 534.337 130.883 534.423 130.808C534.839 130.445 535.34 130.152 535.927 129.928C536.513 129.704 537.121 129.592 537.751 129.592C538.476 129.592 539.089 129.709 539.591 129.944C540.103 130.168 540.492 130.504 540.759 130.952C541.025 131.4 541.159 131.939 541.159 132.568C541.159 133.016 541.084 133.459 540.935 133.896C540.785 134.333 540.561 134.776 540.263 135.224C539.975 135.672 539.601 136.141 539.143 136.632L535.543 140.44V140.136H541.255C541.404 140.136 541.516 140.173 541.591 140.248C541.676 140.312 541.719 140.413 541.719 140.552C541.719 140.701 541.676 140.813 541.591 140.888C541.516 140.963 541.404 141 541.255 141H535.095ZM547.36 141.128C546.72 141.128 546.091 141.032 545.472 140.84C544.854 140.648 544.315 140.36 543.856 139.976C543.75 139.901 543.68 139.816 543.648 139.72C543.627 139.624 543.627 139.533 543.648 139.448C543.67 139.363 543.712 139.288 543.776 139.224C543.84 139.16 543.92 139.128 544.016 139.128C544.112 139.117 544.219 139.155 544.336 139.24C544.816 139.581 545.302 139.832 545.792 139.992C546.294 140.152 546.816 140.232 547.36 140.232C547.936 140.232 548.422 140.147 548.816 139.976C549.211 139.795 549.51 139.533 549.712 139.192C549.926 138.851 550.032 138.429 550.032 137.928C550.032 137.203 549.792 136.653 549.312 136.28C548.843 135.896 548.16 135.704 547.264 135.704H546.064C545.915 135.704 545.798 135.667 545.712 135.592C545.627 135.507 545.584 135.4 545.584 135.272C545.584 135.133 545.627 135.027 545.712 134.952C545.798 134.877 545.915 134.84 546.064 134.84H547.184C547.707 134.84 548.155 134.744 548.528 134.552C548.902 134.36 549.19 134.093 549.392 133.752C549.606 133.4 549.712 132.979 549.712 132.488C549.712 131.848 549.504 131.357 549.088 131.016C548.683 130.664 548.091 130.488 547.312 130.488C546.79 130.488 546.299 130.573 545.84 130.744C545.382 130.904 544.944 131.165 544.528 131.528C544.432 131.613 544.336 131.661 544.24 131.672C544.144 131.672 544.059 131.645 543.984 131.592C543.92 131.539 543.872 131.469 543.84 131.384C543.808 131.288 543.808 131.192 543.84 131.096C543.872 130.989 543.942 130.893 544.048 130.808C544.464 130.413 544.96 130.115 545.536 129.912C546.123 129.699 546.726 129.592 547.344 129.592C548.048 129.592 548.651 129.704 549.152 129.928C549.654 130.152 550.038 130.477 550.304 130.904C550.582 131.331 550.72 131.843 550.72 132.44C550.72 132.909 550.63 133.336 550.448 133.72C550.278 134.104 550.032 134.429 549.712 134.696C549.392 134.963 549.008 135.155 548.56 135.272V135.096C549.339 135.235 549.942 135.56 550.368 136.072C550.806 136.573 551.024 137.208 551.024 137.976C551.024 138.616 550.875 139.176 550.576 139.656C550.288 140.125 549.872 140.488 549.328 140.744C548.784 141 548.128 141.128 547.36 141.128Z" fill="black"/>
<path d="M408 148.333C415.364 148.333 421.333 142.364 421.333 135C421.333 127.636 415.364 121.667 408 121.667C400.636 121.667 394.667 127.636 394.667 135C394.667 142.364 400.636 148.333 408 148.333Z" stroke="#AD7C00" stroke-width="2" stroke-linecap="round" stroke-linejoin="round" stroke-dasharray="4 4"/>
</g>
<path d="M359.667 136C359.667 138.946 362.054 141.333 365 141.333C367.946 141.333 370.333 138.946 370.333 136C370.333 133.054 367.946 130.667 365 130.667C362.054 130.667 359.667 133.054 359.667 136ZM343 136V137H365V136V135H343V136Z" fill="#B7B4B4"/>
<path d="M624.667 135C624.667 137.946 627.054 140.333 630 140.333C632.946 140.333 635.333 137.946 635.333 135C635.333 132.054 632.946 129.667 630 129.667C627.054 129.667 624.667 132.054 624.667 135ZM608 135V136H630V135V134H608V135Z" fill="#B7B4B4"/>
<defs>
<filter id="filter0_dddd_2003_1904" x="-175" y="93" width="297" height="193" filterUnits="userSpaceOnUse" color-interpolation-filters="sRGB">
<feFlood flood-opacity="0" result="BackgroundImageFix"/>
<feColorMatrix in="SourceAlpha" type="matrix" values="0 0 0 0 0 0 0 0 0 0 0 0 0 0 0 0 0 0 127 0" result="hardAlpha"/>
<feOffset dx="1" dy="5"/>
<feGaussianBlur stdDeviation="5.5"/>
<feColorMatrix type="matrix" values="0 0 0 0 0 0 0 0 0 0 0 0 0 0 0 0 0 0 0.08 0"/>
<feBlend mode="normal" in2="BackgroundImageFix" result="effect1_dropShadow_2003_1904"/>
<feColorMatrix in="SourceAlpha" type="matrix" values="0 0 0 0 0 0 0 0 0 0 0 0 0 0 0 0 0 0 127 0" result="hardAlpha"/>
<feOffset dx="2" dy="20"/>
<feGaussianBlur stdDeviation="10.5"/>
<feColorMatrix type="matrix" values="0 0 0 0 0 0 0 0 0 0 0 0 0 0 0 0 0 0 0.06 0"/>
<feBlend mode="normal" in2="effect1_dropShadow_2003_1904" result="effect2_dropShadow_2003_1904"/>
<feColorMatrix in="SourceAlpha" type="matrix" values="0 0 0 0 0 0 0 0 0 0 0 0 0 0 0 0 0 0 127 0" result="hardAlpha"/>
<feOffset dx="5" dy="46"/>
<feGaussianBlur stdDeviation="14"/>
<feColorMatrix type="matrix" values="0 0 0 0 0 0 0 0 0 0 0 0 0 0 0 0 0 0 0.04 0"/>
<feBlend mode="normal" in2="effect2_dropShadow_2003_1904" result="effect3_dropShadow_2003_1904"/>
<feColorMatrix in="SourceAlpha" type="matrix" values="0 0 0 0 0 0 0 0 0 0 0 0 0 0 0 0 0 0 127 0" result="hardAlpha"/>
<feOffset dx="10" dy="82"/>
<feGaussianBlur stdDeviation="16.5"/>
<feColorMatrix type="matrix" values="0 0 0 0 0 0 0 0 0 0 0 0 0 0 0 0 0 0 0.01 0"/>
<feBlend mode="normal" in2="effect3_dropShadow_2003_1904" result="effect4_dropShadow_2003_1904"/>
<feBlend mode="normal" in="SourceGraphic" in2="effect4_dropShadow_2003_1904" result="shape"/>
</filter>
<filter id="filter1_dddd_2003_1904" x="87" y="93" width="297" height="193" filterUnits="userSpaceOnUse" color-interpolation-filters="sRGB">
<feFlood flood-opacity="0" result="BackgroundImageFix"/>
<feColorMatrix in="SourceAlpha" type="matrix" values="0 0 0 0 0 0 0 0 0 0 0 0 0 0 0 0 0 0 127 0" result="hardAlpha"/>
<feOffset dx="1" dy="5"/>
<feGaussianBlur stdDeviation="5.5"/>
<feColorMatrix type="matrix" values="0 0 0 0 0 0 0 0 0 0 0 0 0 0 0 0 0 0 0.08 0"/>
<feBlend mode="normal" in2="BackgroundImageFix" result="effect1_dropShadow_2003_1904"/>
<feColorMatrix in="SourceAlpha" type="matrix" values="0 0 0 0 0 0 0 0 0 0 0 0 0 0 0 0 0 0 127 0" result="hardAlpha"/>
<feOffset dx="2" dy="20"/>
<feGaussianBlur stdDeviation="10.5"/>
<feColorMatrix type="matrix" values="0 0 0 0 0 0 0 0 0 0 0 0 0 0 0 0 0 0 0.06 0"/>
<feBlend mode="normal" in2="effect1_dropShadow_2003_1904" result="effect2_dropShadow_2003_1904"/>
<feColorMatrix in="SourceAlpha" type="matrix" values="0 0 0 0 0 0 0 0 0 0 0 0 0 0 0 0 0 0 127 0" result="hardAlpha"/>
<feOffset dx="5" dy="46"/>
<feGaussianBlur stdDeviation="14"/>
<feColorMatrix type="matrix" values="0 0 0 0 0 0 0 0 0 0 0 0 0 0 0 0 0 0 0.04 0"/>
<feBlend mode="normal" in2="effect2_dropShadow_2003_1904" result="effect3_dropShadow_2003_1904"/>
<feColorMatrix in="SourceAlpha" type="matrix" values="0 0 0 0 0 0 0 0 0 0 0 0 0 0 0 0 0 0 127 0" result="hardAlpha"/>
<feOffset dx="10" dy="82"/>
<feGaussianBlur stdDeviation="16.5"/>
<feColorMatrix type="matrix" values="0 0 0 0 0 0 0 0 0 0 0 0 0 0 0 0 0 0 0.01 0"/>
<feBlend mode="normal" in2="effect3_dropShadow_2003_1904" result="effect4_dropShadow_2003_1904"/>
<feBlend mode="normal" in="SourceGraphic" in2="effect4_dropShadow_2003_1904" result="shape"/>
</filter>
<filter id="filter2_dddd_2003_1904" x="349" y="93" width="297" height="193" filterUnits="userSpaceOnUse" color-interpolation-filters="sRGB">
<feFlood flood-opacity="0" result="BackgroundImageFix"/>
<feColorMatrix in="SourceAlpha" type="matrix" values="0 0 0 0 0 0 0 0 0 0 0 0 0 0 0 0 0 0 127 0" result="hardAlpha"/>
<feOffset dx="1" dy="5"/>
<feGaussianBlur stdDeviation="5.5"/>
<feColorMatrix type="matrix" values="0 0 0 0 0 0 0 0 0 0 0 0 0 0 0 0 0 0 0.08 0"/>
<feBlend mode="normal" in2="BackgroundImageFix" result="effect1_dropShadow_2003_1904"/>
<feColorMatrix in="SourceAlpha" type="matrix" values="0 0 0 0 0 0 0 0 0 0 0 0 0 0 0 0 0 0 127 0" result="hardAlpha"/>
<feOffset dx="2" dy="20"/>
<feGaussianBlur stdDeviation="10.5"/>
<feColorMatrix type="matrix" values="0 0 0 0 0 0 0 0 0 0 0 0 0 0 0 0 0 0 0.06 0"/>
<feBlend mode="normal" in2="effect1_dropShadow_2003_1904" result="effect2_dropShadow_2003_1904"/>
<feColorMatrix in="SourceAlpha" type="matrix" values="0 0 0 0 0 0 0 0 0 0 0 0 0 0 0 0 0 0 127 0" result="hardAlpha"/>
<feOffset dx="5" dy="46"/>
<feGaussianBlur stdDeviation="14"/>
<feColorMatrix type="matrix" values="0 0 0 0 0 0 0 0 0 0 0 0 0 0 0 0 0 0 0.04 0"/>
<feBlend mode="normal" in2="effect2_dropShadow_2003_1904" result="effect3_dropShadow_2003_1904"/>
<feColorMatrix in="SourceAlpha" type="matrix" values="0 0 0 0 0 0 0 0 0 0 0 0 0 0 0 0 0 0 127 0" result="hardAlpha"/>
<feOffset dx="10" dy="82"/>
<feGaussianBlur stdDeviation="16.5"/>
<feColorMatrix type="matrix" values="0 0 0 0 0 0 0 0 0 0 0 0 0 0 0 0 0 0 0.01 0"/>
<feBlend mode="normal" in2="effect3_dropShadow_2003_1904" result="effect4_dropShadow_2003_1904"/>
<feBlend mode="normal" in="SourceGraphic" in2="effect4_dropShadow_2003_1904" result="shape"/>
</filter>
<linearGradient id="paint0_linear_2003_1904" x1="-132.086" y1="93" x2="-106.676" y2="206.421" gradientUnits="userSpaceOnUse">
<stop stop-color="white" stop-opacity="0"/>
<stop offset="1" stop-color="#AD7C00" stop-opacity="0.06"/>
</linearGradient>
<linearGradient id="paint1_linear_2003_1904" x1="129.914" y1="93" x2="155.324" y2="206.421" gradientUnits="userSpaceOnUse">
<stop stop-color="white" stop-opacity="0"/>
<stop offset="1" stop-color="#AD7C00" stop-opacity="0.06"/>
</linearGradient>
<linearGradient id="paint2_linear_2003_1904" x1="391.914" y1="93" x2="417.324" y2="206.421" gradientUnits="userSpaceOnUse">
<stop stop-color="white" stop-opacity="0"/>
<stop offset="1" stop-color="#AD7C00" stop-opacity="0.06"/>
</linearGradient>
</defs>
</svg>
